<svg width="310" height="180" viewBox="0 0 310 180" fill="none" xmlns="http://www.w3.org/2000/svg">
<g clip-path="url(#clip0_2_19)">
<path d="M0 0H230C274.183 0 310 35.8172 310 80V180H80C35.8172 180 0 144.183 0 100V0Z" fill="#BE8C8C"/>
<g filter="url(#filter0_d_2_19)">
<rect x="14.1646" y="-43" width="83.2943" height="237" transform="rotate(25.804 14.1646 -43)" fill="url(#paint0_linear_2_19)" shape-rendering="crispEdges"/>
</g>
<g filter="url(#filter1_d_2_19)">
<rect x="310.165" width="83.2943" height="237" transform="rotate(25.804 310.165 0)" fill="url(#paint1_linear_2_19)" shape-rendering="crispEdges"/>
</g>
</g>
<rect x="65" width="180" height="180" rx="90" fill="url(#paint2_linear_2_19)"/>
<rect x="65" width="180" height="180" rx="90" fill="url(#paint3_radial_2_19)" fill-opacity="0.2"/>
<circle cx="196" cy="38" r="8" fill="white"/>
<path d="M65.0425 90.306L244.975 80.6187L245.048 98.5125L65.0425 90.306Z" fill="white"/>
<g filter="url(#filter2_d_2_19)">
<path d="M93.3399 130.048C92.8279 130.048 92.5719 129.621 92.5719 128.768C92.5719 126.805 92.8705 123.733 93.4679 119.552C94.1505 115.371 95.0039 110.549 96.0279 105.088C97.1372 99.5413 98.2892 93.7813 99.4839 87.808C100.764 81.7493 102.044 75.904 103.324 70.272C104.604 64.5547 105.756 59.4773 106.78 55.04C107.036 53.9307 106.823 53.0347 106.14 52.352C105.543 51.584 105.244 50.9013 105.244 50.304C105.244 49.8773 105.415 49.4507 105.756 49.024C106.097 48.5973 106.737 48.384 107.676 48.384C108.359 48.384 109.511 48.512 111.132 48.768C112.753 48.9387 114.161 49.152 115.356 49.408C119.025 50.176 122.865 51.2853 126.876 52.736C130.972 54.1013 134.812 55.8933 138.396 58.112C141.98 60.2453 144.839 62.848 146.972 65.92C147.911 67.2 148.636 68.5653 149.148 70.016C149.745 71.4667 150.044 72.96 150.044 74.496C150.044 77.312 149.276 79.7867 147.74 81.92C146.204 84.0533 144.199 85.888 141.724 87.424C139.335 88.96 136.775 90.24 134.044 91.264C131.399 92.288 128.967 93.0987 126.748 93.696C121.287 95.1467 115.697 96.0853 109.98 96.512C111.431 98.816 113.095 101.205 114.972 103.68C116.849 106.155 118.641 108.459 120.348 110.592C122.14 112.725 123.548 114.347 124.572 115.456C126.535 117.589 128.668 119.723 130.972 121.856C133.361 123.904 135.836 125.611 138.396 126.976C140.956 128.256 143.516 128.896 146.076 128.896C147.527 128.896 148.423 128.725 148.764 128.384C149.105 128.128 149.447 128 149.788 128C149.959 128 150.044 128.128 150.044 128.384C150.044 128.725 150.001 129.067 149.916 129.408C149.66 130.091 148.977 130.816 147.868 131.584C146.844 132.437 145.223 132.864 143.004 132.864C139.591 132.864 136.22 131.883 132.892 129.92C129.649 127.957 126.364 125.269 123.036 121.856C119.793 118.443 116.508 114.603 113.18 110.336C109.852 105.984 106.481 101.504 103.068 96.896C102.812 98.176 102.385 100.181 101.788 102.912C101.276 105.557 100.721 108.544 100.124 111.872C99.6119 115.115 99.2279 118.187 98.9719 121.088C98.9719 121.685 98.9719 122.325 98.9719 123.008C98.9719 123.691 98.9292 124.373 98.8439 125.056C98.7585 125.483 98.3319 126.123 97.5639 126.976C96.8812 127.744 96.1132 128.427 95.2599 129.024C94.4919 129.707 93.8519 130.048 93.3399 130.048ZM103.452 94.336C106.353 94.336 109.468 94.1227 112.796 93.696C116.124 93.2693 119.239 92.7573 122.14 92.16C124.188 91.7333 126.449 91.136 128.924 90.368C131.484 89.6 133.916 88.576 136.22 87.296C138.609 86.016 140.529 84.4373 141.98 82.56C143.516 80.6827 144.284 78.4213 144.284 75.776C144.284 72.5333 143.217 69.632 141.084 67.072C138.951 64.512 136.22 62.336 132.892 60.544C129.649 58.6667 126.279 57.216 122.78 56.192C119.281 55.0827 116.124 54.4 113.308 54.144L107.804 74.496C106.865 78.6773 105.969 82.6027 105.116 86.272C104.348 89.856 103.793 92.544 103.452 94.336ZM191.786 128.768C182.506 128.768 175.338 126.336 170.282 121.472C165.29 116.608 162.794 109.536 162.794 100.256C162.794 92.064 164.17 84.928 166.922 78.848C169.674 72.704 173.578 67.968 178.634 64.64C183.69 61.248 189.642 59.552 196.49 59.552C201.29 59.552 205.578 60.352 209.354 61.952C213.194 63.552 216.394 65.792 218.954 68.672L216.554 72.032C213.802 69.088 210.794 66.944 207.53 65.6C204.33 64.192 200.554 63.488 196.202 63.488C190.25 63.488 185.098 64.992 180.746 68C176.394 70.944 173.034 75.168 170.666 80.672C168.298 86.176 167.114 92.704 167.114 100.256C167.114 108.576 169.194 114.752 173.354 118.784C177.578 122.816 183.786 124.832 191.978 124.832C195.306 124.832 198.314 124.576 201.002 124.064C203.69 123.488 206.218 122.784 208.586 121.952L212.522 97.664H193.898L194.474 93.92H216.938L212.042 124.928C209.738 125.952 206.73 126.848 203.018 127.616C199.306 128.384 195.562 128.768 191.786 128.768Z" fill="url(#paint4_linear_2_19)" shape-rendering="crispEdges"/>
<path d="M93.4679 119.552L91.494 119.23L91.4908 119.249L91.488 119.269L93.4679 119.552ZM96.0279 105.088L94.0667 104.696L94.0644 104.708L94.0621 104.719L96.0279 105.088ZM99.4839 87.808L97.5271 87.3946L97.5248 87.4052L97.5227 87.4158L99.4839 87.808ZM103.324 70.272L105.274 70.7152L105.276 70.7089L103.324 70.272ZM106.78 55.04L104.831 54.5903L104.831 54.5903L106.78 55.04ZM106.14 52.352L104.561 53.5799L104.638 53.6782L104.726 53.7662L106.14 52.352ZM105.756 49.024L107.318 50.2734L107.318 50.2734L105.756 49.024ZM111.132 48.768L110.82 50.7435L110.871 50.7516L110.923 50.757L111.132 48.768ZM115.356 49.408L114.937 51.3636L114.946 51.3656L115.356 49.408ZM126.876 52.736L126.196 54.6168L126.219 54.6254L126.243 54.6334L126.876 52.736ZM138.396 58.112L137.343 59.8125L137.358 59.8217L137.373 59.8306L138.396 58.112ZM146.972 65.92L145.329 67.0608L145.344 67.082L145.359 67.1027L146.972 65.92ZM149.148 70.016L147.262 70.6816L147.279 70.73L147.299 70.7775L149.148 70.016ZM147.74 81.92L149.363 83.0886L149.363 83.0886L147.74 81.92ZM141.724 87.424L140.669 85.7247L140.656 85.7331L140.642 85.7416L141.724 87.424ZM134.044 91.264L133.342 89.3913L133.332 89.3951L133.322 89.3989L134.044 91.264ZM126.748 93.696L127.261 95.629L127.268 95.6272L126.748 93.696ZM109.98 96.512L109.831 94.5175L106.516 94.7649L108.287 97.5776L109.98 96.512ZM120.348 110.592L118.786 111.841L118.801 111.86L118.816 111.878L120.348 110.592ZM124.572 115.456L126.044 114.102L126.041 114.099L124.572 115.456ZM130.972 121.856L129.613 123.324L129.641 123.35L129.67 123.375L130.972 121.856ZM138.396 126.976L137.455 128.741L137.478 128.753L137.501 128.765L138.396 126.976ZM148.764 128.384L147.564 126.784L147.45 126.869L147.35 126.97L148.764 128.384ZM149.916 129.408L151.789 130.11L151.829 130.004L151.856 129.893L149.916 129.408ZM147.868 131.584L146.729 129.94L146.656 129.99L146.588 130.048L147.868 131.584ZM132.892 129.92L131.856 131.631L131.866 131.637L131.876 131.643L132.892 129.92ZM123.036 121.856L121.586 123.233L121.595 123.243L121.604 123.252L123.036 121.856ZM113.18 110.336L111.591 111.551L111.597 111.559L111.603 111.566L113.18 110.336ZM103.068 96.896L104.675 95.7055L101.991 92.0822L101.107 96.5038L103.068 96.896ZM101.788 102.912L99.8341 102.485L99.8289 102.508L99.8243 102.532L101.788 102.912ZM100.124 111.872L98.1553 111.519L98.1516 111.539L98.1483 111.56L100.124 111.872ZM98.9719 121.088L96.9796 120.912L96.9719 121V121.088H98.9719ZM98.8439 125.056L100.805 125.448L100.819 125.377L100.828 125.304L98.8439 125.056ZM97.5639 126.976L96.0773 125.638L96.0691 125.647L97.5639 126.976ZM95.2599 129.024L94.113 127.386L94.0179 127.452L93.9311 127.529L95.2599 129.024ZM103.452 94.336L101.487 93.9618L101.035 96.336H103.452V94.336ZM112.796 93.696L112.542 91.7122L112.542 91.7122L112.796 93.696ZM122.14 92.16L122.543 94.1189L122.548 94.118L122.14 92.16ZM128.924 90.368L128.349 88.4523L128.34 88.4551L128.331 88.4579L128.924 90.368ZM136.22 87.296L135.275 85.533L135.262 85.5403L135.249 85.5477L136.22 87.296ZM141.98 82.56L140.432 81.2935L140.414 81.3151L140.397 81.3371L141.98 82.56ZM141.084 67.072L139.547 68.3524L139.547 68.3524L141.084 67.072ZM132.892 60.544L131.89 62.2749L131.917 62.2903L131.944 62.3049L132.892 60.544ZM122.78 56.192L122.175 58.0985L122.197 58.1052L122.218 58.1115L122.78 56.192ZM113.308 54.144L113.489 52.1522L111.816 52.0001L111.377 53.6219L113.308 54.144ZM107.804 74.496L105.873 73.9739L105.862 74.0157L105.852 74.0579L107.804 74.496ZM105.116 86.272L103.168 85.819L103.164 85.8359L103.16 85.8529L105.116 86.272ZM93.3399 128.048C93.4951 128.048 93.7282 128.082 93.9752 128.22C94.2248 128.358 94.3867 128.545 94.4789 128.699C94.5222 128.771 94.5476 128.831 94.5616 128.871C94.5757 128.91 94.5805 128.933 94.581 128.936C94.5813 128.937 94.5719 128.887 94.5719 128.768H90.5719C90.5719 129.329 90.6444 130.083 91.0489 130.757C91.551 131.594 92.4063 132.048 93.3399 132.048V128.048ZM94.5719 128.768C94.5719 126.957 94.8522 124.004 95.4478 119.835L91.488 119.269C90.8889 123.463 90.5719 126.654 90.5719 128.768H94.5719ZM95.4417 119.874C96.1212 115.712 96.9717 110.907 97.9936 105.457L94.0621 104.719C93.0361 110.192 92.1798 115.029 91.494 119.23L95.4417 119.874ZM97.989 105.48C99.0984 99.9336 100.25 94.1736 101.445 88.2002L97.5227 87.4158C96.328 93.3891 95.176 99.1491 94.0667 104.696L97.989 105.48ZM101.441 88.2214C102.719 82.172 103.997 76.3366 105.274 70.7152L101.374 69.8288C100.091 75.4714 98.809 81.3267 97.5271 87.3946L101.441 88.2214ZM105.276 70.7089C106.555 64.9947 107.706 59.9218 108.729 55.4897L104.831 54.5903C103.806 59.0329 102.653 64.1146 101.372 69.8351L105.276 70.7089ZM108.729 55.4897C109.107 53.8493 108.819 52.2022 107.554 50.9378L104.726 53.7662C104.827 53.8671 104.965 54.012 104.831 54.5903L108.729 55.4897ZM107.719 51.1241C107.493 50.8337 107.366 50.6136 107.3 50.4624C107.235 50.3132 107.244 50.2675 107.244 50.304H103.244C103.244 51.5492 103.849 52.6646 104.561 53.5799L107.719 51.1241ZM107.244 50.304C107.244 50.3316 107.241 50.3563 107.237 50.3762C107.233 50.3958 107.229 50.4063 107.229 50.4068C107.229 50.4069 107.233 50.3956 107.247 50.373C107.261 50.3502 107.283 50.3168 107.318 50.2734L104.194 47.7746C103.65 48.4549 103.244 49.3088 103.244 50.304H107.244ZM107.318 50.2734C107.196 50.4249 107.084 50.4548 107.124 50.4414C107.178 50.4235 107.344 50.384 107.676 50.384V46.384C106.551 46.384 105.117 46.6208 104.194 47.7746L107.318 50.2734ZM107.676 50.384C108.185 50.384 109.199 50.4875 110.82 50.7435L111.444 46.7925C109.822 46.5365 108.532 46.384 107.676 46.384V50.384ZM110.923 50.757C112.495 50.9225 113.83 51.1264 114.937 51.3636L115.775 47.4524C114.493 47.1776 113.011 46.9548 111.341 46.779L110.923 50.757ZM114.946 51.3656C118.512 52.1119 122.261 53.1937 126.196 54.6168L127.556 50.8552C123.469 49.3769 119.538 48.2401 115.766 47.4504L114.946 51.3656ZM126.243 54.6334C130.196 55.9508 133.894 57.6775 137.343 59.8125L139.449 56.4115C135.729 54.1091 131.748 52.2518 127.508 50.8386L126.243 54.6334ZM137.373 59.8306C140.74 61.8347 143.377 64.2492 145.329 67.0608L148.615 64.7792C146.3 61.4468 143.22 58.6559 139.419 56.3934L137.373 59.8306ZM145.359 67.1027C146.186 68.2297 146.817 69.4216 147.262 70.6816L151.034 69.3504C150.455 67.709 149.636 66.1702 148.585 64.7373L145.359 67.1027ZM147.299 70.7775C147.799 71.9919 148.044 73.2269 148.044 74.496H152.044C152.044 72.6931 151.692 70.9414 150.997 69.2545L147.299 70.7775ZM148.044 74.496C148.044 76.9242 147.39 78.9832 146.117 80.7514L149.363 83.0886C151.162 80.5901 152.044 77.6998 152.044 74.496H148.044ZM146.117 80.7514C144.749 82.6505 142.946 84.3118 140.669 85.7247L142.779 89.1233C145.452 87.4642 147.658 85.4561 149.363 83.0886L146.117 80.7514ZM140.642 85.7416C138.375 87.1989 135.943 88.4158 133.342 89.3913L134.746 93.1367C137.606 92.0642 140.294 90.7211 142.805 89.1064L140.642 85.7416ZM133.322 89.3989C130.728 90.4029 128.364 91.1895 126.228 91.7648L127.268 95.6272C129.569 95.0078 132.069 94.1731 134.766 93.1291L133.322 89.3989ZM126.234 91.763C120.894 93.1815 115.427 94.0999 109.831 94.5175L110.129 98.5065C115.967 98.0707 121.679 97.1118 127.261 95.629L126.234 91.763ZM108.287 97.5776C109.773 99.937 111.471 102.374 113.378 104.889L116.565 102.471C114.718 100.037 113.088 97.695 111.672 95.4464L108.287 97.5776ZM113.378 104.889C115.265 107.375 117.067 109.693 118.786 111.841L121.91 109.343C120.215 107.224 118.434 104.934 116.565 102.471L113.378 104.889ZM118.816 111.878C120.615 114.019 122.046 115.669 123.102 116.813L126.041 114.099C125.049 113.025 123.665 111.431 121.879 109.306L118.816 111.878ZM123.1 116.81C125.102 118.986 127.273 121.157 129.613 123.324L132.331 120.388C130.063 118.288 127.967 116.193 126.044 114.102L123.1 116.81ZM129.67 123.375C132.161 125.51 134.756 127.301 137.455 128.741L139.337 125.211C136.916 123.92 134.561 122.298 132.273 120.337L129.67 123.375ZM137.501 128.765C140.306 130.167 143.17 130.896 146.076 130.896V126.896C143.861 126.896 141.606 126.345 139.29 125.187L137.501 128.765ZM146.076 130.896C146.863 130.896 147.589 130.851 148.21 130.733C148.754 130.629 149.566 130.41 150.178 129.798L147.35 126.97C147.507 126.812 147.639 126.76 147.639 126.76C147.646 126.757 147.596 126.778 147.462 126.803C147.187 126.856 146.74 126.896 146.076 126.896V130.896ZM149.964 129.984C150.008 129.951 150.013 129.956 149.978 129.969C149.94 129.983 149.873 130 149.788 130V126C148.916 126 148.164 126.334 147.564 126.784L149.964 129.984ZM149.788 130C149.579 130 149.3 129.96 149.005 129.813C148.703 129.662 148.473 129.441 148.316 129.205C148.038 128.788 148.044 128.415 148.044 128.384H152.044C152.044 128.097 152.008 127.532 151.644 126.987C151.185 126.298 150.456 126 149.788 126V130ZM148.044 128.384C148.044 128.557 148.022 128.735 147.976 128.923L151.856 129.893C151.98 129.398 152.044 128.894 152.044 128.384H148.044ZM148.043 128.706C148.008 128.8 147.749 129.234 146.729 129.94L149.006 133.228C150.205 132.398 151.312 131.381 151.789 130.11L148.043 128.706ZM146.588 130.048C146.094 130.458 145.041 130.864 143.004 130.864V134.864C145.404 134.864 147.593 134.416 149.148 133.12L146.588 130.048ZM143.004 130.864C139.993 130.864 136.969 130.003 133.908 128.197L131.876 131.643C135.47 133.762 139.188 134.864 143.004 134.864V130.864ZM133.927 128.209C130.861 126.353 127.706 123.781 124.468 120.46L121.604 123.252C125.021 126.757 128.437 129.562 131.856 131.631L133.927 128.209ZM124.486 120.479C121.294 117.119 118.051 113.329 114.757 109.106L111.603 111.566C114.965 115.877 118.293 119.767 121.586 123.233L124.486 120.479ZM114.769 109.121C111.447 104.778 108.083 100.306 104.675 95.7055L101.461 98.0865C104.88 102.702 108.257 107.19 111.591 111.551L114.769 109.121ZM101.107 96.5038C100.854 97.765 100.431 99.7556 99.8341 102.485L103.742 103.339C104.339 100.607 104.769 98.587 105.029 97.2882L101.107 96.5038ZM99.8243 102.532C99.3102 105.188 98.7539 108.184 98.1553 111.519L102.092 112.225C102.689 108.904 103.242 105.927 103.751 103.292L99.8243 102.532ZM98.1483 111.56C97.6301 114.842 97.2401 117.96 96.9796 120.912L100.964 121.264C101.216 118.413 101.594 115.387 102.099 112.184L98.1483 111.56ZM96.9719 121.088C96.9719 121.089 96.9719 121.09 96.9719 121.092C96.9719 121.093 96.9719 121.094 96.9719 121.095C96.9719 121.096 96.9719 121.097 96.9719 121.099C96.9719 121.1 96.9719 121.101 96.9719 121.102C96.9719 121.103 96.9719 121.104 96.9719 121.106C96.9719 121.107 96.9719 121.108 96.9719 121.109C96.9719 121.11 96.9719 121.111 96.9719 121.113C96.9719 121.114 96.9719 121.115 96.9719 121.116C96.9719 121.117 96.9719 121.118 96.9719 121.12C96.9719 121.121 96.9719 121.122 96.9719 121.123C96.9719 121.124 96.9719 121.125 96.9719 121.127C96.9719 121.128 96.9719 121.129 96.9719 121.13C96.9719 121.131 96.9719 121.132 96.9719 121.134C96.9719 121.135 96.9719 121.136 96.9719 121.137C96.9719 121.138 96.9719 121.139 96.9719 121.141C96.9719 121.142 96.9719 121.143 96.9719 121.144C96.9719 121.145 96.9719 121.146 96.9719 121.148C96.9719 121.149 96.9719 121.15 96.9719 121.151C96.9719 121.152 96.9719 121.154 96.9719 121.155C96.9719 121.156 96.9719 121.157 96.9719 121.158C96.9719 121.159 96.9719 121.161 96.9719 121.162C96.9719 121.163 96.9719 121.164 96.9719 121.165C96.9719 121.166 96.9719 121.168 96.9719 121.169C96.9719 121.17 96.9719 121.171 96.9719 121.172C96.9719 121.173 96.9719 121.175 96.9719 121.176C96.9719 121.177 96.9719 121.178 96.9719 121.179C96.9719 121.181 96.9719 121.182 96.9719 121.183C96.9719 121.184 96.9719 121.185 96.9719 121.186C96.9719 121.188 96.9719 121.189 96.9719 121.19C96.9719 121.191 96.9719 121.192 96.9719 121.193C96.9719 121.195 96.9719 121.196 96.9719 121.197C96.9719 121.198 96.9719 121.199 96.9719 121.2C96.9719 121.202 96.9719 121.203 96.9719 121.204C96.9719 121.205 96.9719 121.206 96.9719 121.208C96.9719 121.209 96.9719 121.21 96.9719 121.211C96.9719 121.212 96.9719 121.213 96.9719 121.215C96.9719 121.216 96.9719 121.217 96.9719 121.218C96.9719 121.219 96.9719 121.221 96.9719 121.222C96.9719 121.223 96.9719 121.224 96.9719 121.225C96.9719 121.226 96.9719 121.228 96.9719 121.229C96.9719 121.23 96.9719 121.231 96.9719 121.232C96.9719 121.234 96.9719 121.235 96.9719 121.236C96.9719 121.237 96.9719 121.238 96.9719 121.239C96.9719 121.241 96.9719 121.242 96.9719 121.243C96.9719 121.244 96.9719 121.245 96.9719 121.246C96.9719 121.248 96.9719 121.249 96.9719 121.25C96.9719 121.251 96.9719 121.252 96.9719 121.254C96.9719 121.255 96.9719 121.256 96.9719 121.257C96.9719 121.258 96.9719 121.259 96.9719 121.261C96.9719 121.262 96.9719 121.263 96.9719 121.264C96.9719 121.265 96.9719 121.267 96.9719 121.268C96.9719 121.269 96.9719 121.27 96.9719 121.271C96.9719 121.273 96.9719 121.274 96.9719 121.275C96.9719 121.276 96.9719 121.277 96.9719 121.278C96.9719 121.28 96.9719 121.281 96.9719 121.282C96.9719 121.283 96.9719 121.284 96.9719 121.286C96.9719 121.287 96.9719 121.288 96.9719 121.289C96.9719 121.29 96.9719 121.291 96.9719 121.293C96.9719 121.294 96.9719 121.295 96.9719 121.296C96.9719 121.297 96.9719 121.299 96.9719 121.3C96.9719 121.301 96.9719 121.302 96.9719 121.303C96.9719 121.305 96.9719 121.306 96.9719 121.307C96.9719 121.308 96.9719 121.309 96.9719 121.31C96.9719 121.312 96.9719 121.313 96.9719 121.314C96.9719 121.315 96.9719 121.316 96.9719 121.318C96.9719 121.319 96.9719 121.32 96.9719 121.321C96.9719 121.322 96.9719 121.324 96.9719 121.325C96.9719 121.326 96.9719 121.327 96.9719 121.328C96.9719 121.329 96.9719 121.331 96.9719 121.332C96.9719 121.333 96.9719 121.334 96.9719 121.335C96.9719 121.337 96.9719 121.338 96.9719 121.339C96.9719 121.34 96.9719 121.341 96.9719 121.343C96.9719 121.344 96.9719 121.345 96.9719 121.346C96.9719 121.347 96.9719 121.348 96.9719 121.35C96.9719 121.351 96.9719 121.352 96.9719 121.353C96.9719 121.354 96.9719 121.356 96.9719 121.357C96.9719 121.358 96.9719 121.359 96.9719 121.36C96.9719 121.362 96.9719 121.363 96.9719 121.364C96.9719 121.365 96.9719 121.366 96.9719 121.368C96.9719 121.369 96.9719 121.37 96.9719 121.371C96.9719 121.372 96.9719 121.374 96.9719 121.375C96.9719 121.376 96.9719 121.377 96.9719 121.378C96.9719 121.379 96.9719 121.381 96.9719 121.382C96.9719 121.383 96.9719 121.384 96.9719 121.385C96.9719 121.387 96.9719 121.388 96.9719 121.389C96.9719 121.39 96.9719 121.391 96.9719 121.393C96.9719 121.394 96.9719 121.395 96.9719 121.396C96.9719 121.397 96.9719 121.399 96.9719 121.4C96.9719 121.401 96.9719 121.402 96.9719 121.403C96.9719 121.405 96.9719 121.406 96.9719 121.407C96.9719 121.408 96.9719 121.409 96.9719 121.411C96.9719 121.412 96.9719 121.413 96.9719 121.414C96.9719 121.415 96.9719 121.417 96.9719 121.418C96.9719 121.419 96.9719 121.42 96.9719 121.421C96.9719 121.423 96.9719 121.424 96.9719 121.425C96.9719 121.426 96.9719 121.427 96.9719 121.428C96.9719 121.43 96.9719 121.431 96.9719 121.432C96.9719 121.433 96.9719 121.434 96.9719 121.436C96.9719 121.437 96.9719 121.438 96.9719 121.439C96.9719 121.44 96.9719 121.442 96.9719 121.443C96.9719 121.444 96.9719 121.445 96.9719 121.446C96.9719 121.448 96.9719 121.449 96.9719 121.45C96.9719 121.451 96.9719 121.452 96.9719 121.454C96.9719 121.455 96.9719 121.456 96.9719 121.457C96.9719 121.458 96.9719 121.46 96.9719 121.461C96.9719 121.462 96.9719 121.463 96.9719 121.464C96.9719 121.466 96.9719 121.467 96.9719 121.468C96.9719 121.469 96.9719 121.47 96.9719 121.472C96.9719 121.473 96.9719 121.474 96.9719 121.475C96.9719 121.477 96.9719 121.478 96.9719 121.479C96.9719 121.48 96.9719 121.481 96.9719 121.483C96.9719 121.484 96.9719 121.485 96.9719 121.486C96.9719 121.487 96.9719 121.489 96.9719 121.49C96.9719 121.491 96.9719 121.492 96.9719 121.493C96.9719 121.495 96.9719 121.496 96.9719 121.497C96.9719 121.498 96.9719 121.499 96.9719 121.501C96.9719 121.502 96.9719 121.503 96.9719 121.504C96.9719 121.505 96.9719 121.507 96.9719 121.508C96.9719 121.509 96.9719 121.51 96.9719 121.511C96.9719 121.513 96.9719 121.514 96.9719 121.515C96.9719 121.516 96.9719 121.517 96.9719 121.519C96.9719 121.52 96.9719 121.521 96.9719 121.522C96.9719 121.523 96.9719 121.525 96.9719 121.526C96.9719 121.527 96.9719 121.528 96.9719 121.53C96.9719 121.531 96.9719 121.532 96.9719 121.533C96.9719 121.534 96.9719 121.536 96.9719 121.537C96.9719 121.538 96.9719 121.539 96.9719 121.54C96.9719 121.542 96.9719 121.543 96.9719 121.544C96.9719 121.545 96.9719 121.546 96.9719 121.548C96.9719 121.549 96.9719 121.55 96.9719 121.551C96.9719 121.552 96.9719 121.554 96.9719 121.555C96.9719 121.556 96.9719 121.557 96.9719 121.559C96.9719 121.56 96.9719 121.561 96.9719 121.562C96.9719 121.563 96.9719 121.565 96.9719 121.566C96.9719 121.567 96.9719 121.568 96.9719 121.569C96.9719 121.571 96.9719 121.572 96.9719 121.573C96.9719 121.574 96.9719 121.575 96.9719 121.577C96.9719 121.578 96.9719 121.579 96.9719 121.58C96.9719 121.582 96.9719 121.583 96.9719 121.584C96.9719 121.585 96.9719 121.586 96.9719 121.588C96.9719 121.589 96.9719 121.59 96.9719 121.591C96.9719 121.592 96.9719 121.594 96.9719 121.595C96.9719 121.596 96.9719 121.597 96.9719 121.598C96.9719 121.6 96.9719 121.601 96.9719 121.602C96.9719 121.603 96.9719 121.605 96.9719 121.606C96.9719 121.607 96.9719 121.608 96.9719 121.609C96.9719 121.611 96.9719 121.612 96.9719 121.613C96.9719 121.614 96.9719 121.615 96.9719 121.617C96.9719 121.618 96.9719 121.619 96.9719 121.62C96.9719 121.622 96.9719 121.623 96.9719 121.624C96.9719 121.625 96.9719 121.626 96.9719 121.628C96.9719 121.629 96.9719 121.63 96.9719 121.631C96.9719 121.632 96.9719 121.634 96.9719 121.635C96.9719 121.636 96.9719 121.637 96.9719 121.639C96.9719 121.64 96.9719 121.641 96.9719 121.642C96.9719 121.643 96.9719 121.645 96.9719 121.646C96.9719 121.647 96.9719 121.648 96.9719 121.65C96.9719 121.651 96.9719 121.652 96.9719 121.653C96.9719 121.654 96.9719 121.656 96.9719 121.657C96.9719 121.658 96.9719 121.659 96.9719 121.66C96.9719 121.662 96.9719 121.663 96.9719 121.664C96.9719 121.665 96.9719 121.667 96.9719 121.668C96.9719 121.669 96.9719 121.67 96.9719 121.671C96.9719 121.673 96.9719 121.674 96.9719 121.675C96.9719 121.676 96.9719 121.678 96.9719 121.679C96.9719 121.68 96.9719 121.681 96.9719 121.682C96.9719 121.684 96.9719 121.685 96.9719 121.686C96.9719 121.687 96.9719 121.689 96.9719 121.69C96.9719 121.691 96.9719 121.692 96.9719 121.693C96.9719 121.695 96.9719 121.696 96.9719 121.697C96.9719 121.698 96.9719 121.7 96.9719 121.701C96.9719 121.702 96.9719 121.703 96.9719 121.704C96.9719 121.706 96.9719 121.707 96.9719 121.708C96.9719 121.709 96.9719 121.711 96.9719 121.712C96.9719 121.713 96.9719 121.714 96.9719 121.715C96.9719 121.717 96.9719 121.718 96.9719 121.719C96.9719 121.72 96.9719 121.722 96.9719 121.723C96.9719 121.724 96.9719 121.725 96.9719 121.726C96.9719 121.728 96.9719 121.729 96.9719 121.73C96.9719 121.731 96.9719 121.733 96.9719 121.734C96.9719 121.735 96.9719 121.736 96.9719 121.737C96.9719 121.739 96.9719 121.74 96.9719 121.741C96.9719 121.742 96.9719 121.744 96.9719 121.745C96.9719 121.746 96.9719 121.747 96.9719 121.749C96.9719 121.75 96.9719 121.751 96.9719 121.752C96.9719 121.753 96.9719 121.755 96.9719 121.756C96.9719 121.757 96.9719 121.758 96.9719 121.76C96.9719 121.761 96.9719 121.762 96.9719 121.763C96.9719 121.764 96.9719 121.766 96.9719 121.767C96.9719 121.768 96.9719 121.769 96.9719 121.771C96.9719 121.772 96.9719 121.773 96.9719 121.774C96.9719 121.776 96.9719 121.777 96.9719 121.778C96.9719 121.779 96.9719 121.78 96.9719 121.782C96.9719 121.783 96.9719 121.784 96.9719 121.785C96.9719 121.787 96.9719 121.788 96.9719 121.789C96.9719 121.79 96.9719 121.792 96.9719 121.793C96.9719 121.794 96.9719 121.795 96.9719 121.796C96.9719 121.798 96.9719 121.799 96.9719 121.8C96.9719 121.801 96.9719 121.803 96.9719 121.804C96.9719 121.805 96.9719 121.806 96.9719 121.808C96.9719 121.809 96.9719 121.81 96.9719 121.811C96.9719 121.812 96.9719 121.814 96.9719 121.815C96.9719 121.816 96.9719 121.817 96.9719 121.819C96.9719 121.82 96.9719 121.821 96.9719 121.822C96.9719 121.824 96.9719 121.825 96.9719 121.826C96.9719 121.827 96.9719 121.828 96.9719 121.83C96.9719 121.831 96.9719 121.832 96.9719 121.833C96.9719 121.835 96.9719 121.836 96.9719 121.837C96.9719 121.838 96.9719 121.84 96.9719 121.841C96.9719 121.842 96.9719 121.843 96.9719 121.845C96.9719 121.846 96.9719 121.847 96.9719 121.848C96.9719 121.849 96.9719 121.851 96.9719 121.852C96.9719 121.853 96.9719 121.854 96.9719 121.856C96.9719 121.857 96.9719 121.858 96.9719 121.859C96.9719 121.861 96.9719 121.862 96.9719 121.863C96.9719 121.864 96.9719 121.866 96.9719 121.867C96.9719 121.868 96.9719 121.869 96.9719 121.87C96.9719 121.872 96.9719 121.873 96.9719 121.874C96.9719 121.875 96.9719 121.877 96.9719 121.878C96.9719 121.879 96.9719 121.88 96.9719 121.882C96.9719 121.883 96.9719 121.884 96.9719 121.885C96.9719 121.887 96.9719 121.888 96.9719 121.889C96.9719 121.89 96.9719 121.892 96.9719 121.893C96.9719 121.894 96.9719 121.895 96.9719 121.896C96.9719 121.898 96.9719 121.899 96.9719 121.9C96.9719 121.901 96.9719 121.903 96.9719 121.904C96.9719 121.905 96.9719 121.906 96.9719 121.908C96.9719 121.909 96.9719 121.91 96.9719 121.911C96.9719 121.913 96.9719 121.914 96.9719 121.915C96.9719 121.916 96.9719 121.918 96.9719 121.919C96.9719 121.92 96.9719 121.921 96.9719 121.923C96.9719 121.924 96.9719 121.925 96.9719 121.926C96.9719 121.928 96.9719 121.929 96.9719 121.93C96.9719 121.931 96.9719 121.932 96.9719 121.934C96.9719 121.935 96.9719 121.936 96.9719 121.937C96.9719 121.939 96.9719 121.94 96.9719 121.941C96.9719 121.942 96.9719 121.944 96.9719 121.945C96.9719 121.946 96.9719 121.947 96.9719 121.949C96.9719 121.95 96.9719 121.951 96.9719 121.952C96.9719 121.954 96.9719 121.955 96.9719 121.956C96.9719 121.957 96.9719 121.959 96.9719 121.96C96.9719 121.961 96.9719 121.962 96.9719 121.964C96.9719 121.965 96.9719 121.966 96.9719 121.967C96.9719 121.969 96.9719 121.97 96.9719 121.971C96.9719 121.972 96.9719 121.974 96.9719 121.975C96.9719 121.976 96.9719 121.977 96.9719 121.979C96.9719 121.98 96.9719 121.981 96.9719 121.982C96.9719 121.984 96.9719 121.985 96.9719 121.986C96.9719 121.987 96.9719 121.989 96.9719 121.99C96.9719 121.991 96.9719 121.992 96.9719 121.994C96.9719 121.995 96.9719 121.996 96.9719 121.997C96.9719 121.999 96.9719 122 96.9719 122.001C96.9719 122.002 96.9719 122.004 96.9719 122.005C96.9719 122.006 96.9719 122.007 96.9719 122.009C96.9719 122.01 96.9719 122.011 96.9719 122.012C96.9719 122.013 96.9719 122.015 96.9719 122.016C96.9719 122.017 96.9719 122.018 96.9719 122.02C96.9719 122.021 96.9719 122.022 96.9719 122.024C96.9719 122.025 96.9719 122.026 96.9719 122.027C96.9719 122.029 96.9719 122.03 96.9719 122.031C96.9719 122.032 96.9719 122.034 96.9719 122.035C96.9719 122.036 96.9719 122.037 96.9719 122.039C96.9719 122.04 96.9719 122.041 96.9719 122.042C96.9719 122.044 96.9719 122.045 96.9719 122.046C96.9719 122.047 96.9719 122.049 96.9719 122.05C96.9719 122.051 96.9719 122.052 96.9719 122.054C96.9719 122.055 96.9719 122.056 96.9719 122.057C96.9719 122.059 96.9719 122.06 96.9719 122.061C96.9719 122.062 96.9719 122.064 96.9719 122.065C96.9719 122.066 96.9719 122.067 96.9719 122.069C96.9719 122.07 96.9719 122.071 96.9719 122.072C96.9719 122.074 96.9719 122.075 96.9719 122.076C96.9719 122.077 96.9719 122.079 96.9719 122.08C96.9719 122.081 96.9719 122.082 96.9719 122.084C96.9719 122.085 96.9719 122.086 96.9719 122.087C96.9719 122.089 96.9719 122.09 96.9719 122.091C96.9719 122.092 96.9719 122.094 96.9719 122.095C96.9719 122.096 96.9719 122.097 96.9719 122.099C96.9719 122.1 96.9719 122.101 96.9719 122.103C96.9719 122.104 96.9719 122.105 96.9719 122.106C96.9719 122.108 96.9719 122.109 96.9719 122.11C96.9719 122.111 96.9719 122.113 96.9719 122.114C96.9719 122.115 96.9719 122.116 96.9719 122.118C96.9719 122.119 96.9719 122.12 96.9719 122.121C96.9719 122.123 96.9719 122.124 96.9719 122.125C96.9719 122.126 96.9719 122.128 96.9719 122.129C96.9719 122.13 96.9719 122.131 96.9719 122.133C96.9719 122.134 96.9719 122.135 96.9719 122.136C96.9719 122.138 96.9719 122.139 96.9719 122.14C96.9719 122.142 96.9719 122.143 96.9719 122.144C96.9719 122.145 96.9719 122.147 96.9719 122.148C96.9719 122.149 96.9719 122.15 96.9719 122.152C96.9719 122.153 96.9719 122.154 96.9719 122.155C96.9719 122.157 96.9719 122.158 96.9719 122.159C96.9719 122.16 96.9719 122.162 96.9719 122.163C96.9719 122.164 96.9719 122.166 96.9719 122.167C96.9719 122.168 96.9719 122.169 96.9719 122.171C96.9719 122.172 96.9719 122.173 96.9719 122.174C96.9719 122.176 96.9719 122.177 96.9719 122.178C96.9719 122.179 96.9719 122.181 96.9719 122.182C96.9719 122.183 96.9719 122.184 96.9719 122.186C96.9719 122.187 96.9719 122.188 96.9719 122.19C96.9719 122.191 96.9719 122.192 96.9719 122.193C96.9719 122.195 96.9719 122.196 96.9719 122.197C96.9719 122.198 96.9719 122.2 96.9719 122.201C96.9719 122.202 96.9719 122.203 96.9719 122.205C96.9719 122.206 96.9719 122.207 96.9719 122.209C96.9719 122.21 96.9719 122.211 96.9719 122.212C96.9719 122.214 96.9719 122.215 96.9719 122.216C96.9719 122.217 96.9719 122.219 96.9719 122.22C96.9719 122.221 96.9719 122.222 96.9719 122.224C96.9719 122.225 96.9719 122.226 96.9719 122.228C96.9719 122.229 96.9719 122.23 96.9719 122.231C96.9719 122.233 96.9719 122.234 96.9719 122.235C96.9719 122.236 96.9719 122.238 96.9719 122.239C96.9719 122.24 96.9719 122.241 96.9719 122.243C96.9719 122.244 96.9719 122.245 96.9719 122.247C96.9719 122.248 96.9719 122.249 96.9719 122.25C96.9719 122.252 96.9719 122.253 96.9719 122.254C96.9719 122.255 96.9719 122.257 96.9719 122.258C96.9719 122.259 96.9719 122.261 96.9719 122.262C96.9719 122.263 96.9719 122.264 96.9719 122.266C96.9719 122.267 96.9719 122.268 96.9719 122.269C96.9719 122.271 96.9719 122.272 96.9719 122.273C96.9719 122.275 96.9719 122.276 96.9719 122.277C96.9719 122.278 96.9719 122.28 96.9719 122.281C96.9719 122.282 96.9719 122.283 96.9719 122.285C96.9719 122.286 96.9719 122.287 96.9719 122.289C96.9719 122.29 96.9719 122.291 96.9719 122.292C96.9719 122.294 96.9719 122.295 96.9719 122.296C96.9719 122.297 96.9719 122.299 96.9719 122.3C96.9719 122.301 96.9719 122.303 96.9719 122.304C96.9719 122.305 96.9719 122.306 96.9719 122.308C96.9719 122.309 96.9719 122.31 96.9719 122.311C96.9719 122.313 96.9719 122.314 96.9719 122.315C96.9719 122.317 96.9719 122.318 96.9719 122.319C96.9719 122.32 96.9719 122.322 96.9719 122.323C96.9719 122.324 96.9719 122.326 96.9719 122.327C96.9719 122.328 96.9719 122.329 96.9719 122.331C96.9719 122.332 96.9719 122.333 96.9719 122.334C96.9719 122.336 96.9719 122.337 96.9719 122.338C96.9719 122.34 96.9719 122.341 96.9719 122.342C96.9719 122.343 96.9719 122.345 96.9719 122.346C96.9719 122.347 96.9719 122.349 96.9719 122.35C96.9719 122.351 96.9719 122.352 96.9719 122.354C96.9719 122.355 96.9719 122.356 96.9719 122.357C96.9719 122.359 96.9719 122.36 96.9719 122.361C96.9719 122.363 96.9719 122.364 96.9719 122.365C96.9719 122.366 96.9719 122.368 96.9719 122.369C96.9719 122.37 96.9719 122.372 96.9719 122.373C96.9719 122.374 96.9719 122.375 96.9719 122.377C96.9719 122.378 96.9719 122.379 96.9719 122.38C96.9719 122.382 96.9719 122.383 96.9719 122.384C96.9719 122.386 96.9719 122.387 96.9719 122.388C96.9719 122.389 96.9719 122.391 96.9719 122.392C96.9719 122.393 96.9719 122.395 96.9719 122.396C96.9719 122.397 96.9719 122.398 96.9719 122.4C96.9719 122.401 96.9719 122.402 96.9719 122.404C96.9719 122.405 96.9719 122.406 96.9719 122.407C96.9719 122.409 96.9719 122.41 96.9719 122.411C96.9719 122.413 96.9719 122.414 96.9719 122.415C96.9719 122.416 96.9719 122.418 96.9719 122.419C96.9719 122.42 96.9719 122.422 96.9719 122.423C96.9719 122.424 96.9719 122.425 96.9719 122.427C96.9719 122.428 96.9719 122.429 96.9719 122.431C96.9719 122.432 96.9719 122.433 96.9719 122.434C96.9719 122.436 96.9719 122.437 96.9719 122.438C96.9719 122.44 96.9719 122.441 96.9719 122.442C96.9719 122.443 96.9719 122.445 96.9719 122.446C96.9719 122.447 96.9719 122.449 96.9719 122.45C96.9719 122.451 96.9719 122.452 96.9719 122.454C96.9719 122.455 96.9719 122.456 96.9719 122.458C96.9719 122.459 96.9719 122.46 96.9719 122.461C96.9719 122.463 96.9719 122.464 96.9719 122.465C96.9719 122.467 96.9719 122.468 96.9719 122.469C96.9719 122.47 96.9719 122.472 96.9719 122.473C96.9719 122.474 96.9719 122.476 96.9719 122.477C96.9719 122.478 96.9719 122.479 96.9719 122.481C96.9719 122.482 96.9719 122.483 96.9719 122.485C96.9719 122.486 96.9719 122.487 96.9719 122.489C96.9719 122.49 96.9719 122.491 96.9719 122.492C96.9719 122.494 96.9719 122.495 96.9719 122.496C96.9719 122.498 96.9719 122.499 96.9719 122.5C96.9719 122.501 96.9719 122.503 96.9719 122.504C96.9719 122.505 96.9719 122.507 96.9719 122.508C96.9719 122.509 96.9719 122.51 96.9719 122.512C96.9719 122.513 96.9719 122.514 96.9719 122.516C96.9719 122.517 96.9719 122.518 96.9719 122.52C96.9719 122.521 96.9719 122.522 96.9719 122.523C96.9719 122.525 96.9719 122.526 96.9719 122.527C96.9719 122.529 96.9719 122.53 96.9719 122.531C96.9719 122.532 96.9719 122.534 96.9719 122.535C96.9719 122.536 96.9719 122.538 96.9719 122.539C96.9719 122.54 96.9719 122.542 96.9719 122.543C96.9719 122.544 96.9719 122.545 96.9719 122.547C96.9719 122.548 96.9719 122.549 96.9719 122.551C96.9719 122.552 96.9719 122.553 96.9719 122.554C96.9719 122.556 96.9719 122.557 96.9719 122.558C96.9719 122.56 96.9719 122.561 96.9719 122.562C96.9719 122.564 96.9719 122.565 96.9719 122.566C96.9719 122.567 96.9719 122.569 96.9719 122.57C96.9719 122.571 96.9719 122.573 96.9719 122.574C96.9719 122.575 96.9719 122.577 96.9719 122.578C96.9719 122.579 96.9719 122.58 96.9719 122.582C96.9719 122.583 96.9719 122.584 96.9719 122.586C96.9719 122.587 96.9719 122.588 96.9719 122.589C96.9719 122.591 96.9719 122.592 96.9719 122.593C96.9719 122.595 96.9719 122.596 96.9719 122.597C96.9719 122.599 96.9719 122.6 96.9719 122.601C96.9719 122.602 96.9719 122.604 96.9719 122.605C96.9719 122.606 96.9719 122.608 96.9719 122.609C96.9719 122.61 96.9719 122.612 96.9719 122.613C96.9719 122.614 96.9719 122.615 96.9719 122.617C96.9719 122.618 96.9719 122.619 96.9719 122.621C96.9719 122.622 96.9719 122.623 96.9719 122.625C96.9719 122.626 96.9719 122.627 96.9719 122.628C96.9719 122.63 96.9719 122.631 96.9719 122.632C96.9719 122.634 96.9719 122.635 96.9719 122.636C96.9719 122.638 96.9719 122.639 96.9719 122.64C96.9719 122.642 96.9719 122.643 96.9719 122.644C96.9719 122.645 96.9719 122.647 96.9719 122.648C96.9719 122.649 96.9719 122.651 96.9719 122.652C96.9719 122.653 96.9719 122.655 96.9719 122.656C96.9719 122.657 96.9719 122.658 96.9719 122.66C96.9719 122.661 96.9719 122.662 96.9719 122.664C96.9719 122.665 96.9719 122.666 96.9719 122.668C96.9719 122.669 96.9719 122.67 96.9719 122.672C96.9719 122.673 96.9719 122.674 96.9719 122.675C96.9719 122.677 96.9719 122.678 96.9719 122.679C96.9719 122.681 96.9719 122.682 96.9719 122.683C96.9719 122.685 96.9719 122.686 96.9719 122.687C96.9719 122.689 96.9719 122.69 96.9719 122.691C96.9719 122.692 96.9719 122.694 96.9719 122.695C96.9719 122.696 96.9719 122.698 96.9719 122.699C96.9719 122.7 96.9719 122.702 96.9719 122.703C96.9719 122.704 96.9719 122.706 96.9719 122.707C96.9719 122.708 96.9719 122.709 96.9719 122.711C96.9719 122.712 96.9719 122.713 96.9719 122.715C96.9719 122.716 96.9719 122.717 96.9719 122.719C96.9719 122.72 96.9719 122.721 96.9719 122.723C96.9719 122.724 96.9719 122.725 96.9719 122.726C96.9719 122.728 96.9719 122.729 96.9719 122.73C96.9719 122.732 96.9719 122.733 96.9719 122.734C96.9719 122.736 96.9719 122.737 96.9719 122.738C96.9719 122.74 96.9719 122.741 96.9719 122.742C96.9719 122.744 96.9719 122.745 96.9719 122.746C96.9719 122.747 96.9719 122.749 96.9719 122.75C96.9719 122.751 96.9719 122.753 96.9719 122.754C96.9719 122.755 96.9719 122.757 96.9719 122.758C96.9719 122.759 96.9719 122.761 96.9719 122.762C96.9719 122.763 96.9719 122.765 96.9719 122.766C96.9719 122.767 96.9719 122.768 96.9719 122.77C96.9719 122.771 96.9719 122.772 96.9719 122.774C96.9719 122.775 96.9719 122.776 96.9719 122.778C96.9719 122.779 96.9719 122.78 96.9719 122.782C96.9719 122.783 96.9719 122.784 96.9719 122.786C96.9719 122.787 96.9719 122.788 96.9719 122.789C96.9719 122.791 96.9719 122.792 96.9719 122.793C96.9719 122.795 96.9719 122.796 96.9719 122.797C96.9719 122.799 96.9719 122.8 96.9719 122.801C96.9719 122.803 96.9719 122.804 96.9719 122.805C96.9719 122.807 96.9719 122.808 96.9719 122.809C96.9719 122.811 96.9719 122.812 96.9719 122.813C96.9719 122.814 96.9719 122.816 96.9719 122.817C96.9719 122.818 96.9719 122.82 96.9719 122.821C96.9719 122.822 96.9719 122.824 96.9719 122.825C96.9719 122.826 96.9719 122.828 96.9719 122.829C96.9719 122.83 96.9719 122.832 96.9719 122.833C96.9719 122.834 96.9719 122.836 96.9719 122.837C96.9719 122.838 96.9719 122.84 96.9719 122.841C96.9719 122.842 96.9719 122.844 96.9719 122.845C96.9719 122.846 96.9719 122.847 96.9719 122.849C96.9719 122.85 96.9719 122.851 96.9719 122.853C96.9719 122.854 96.9719 122.855 96.9719 122.857C96.9719 122.858 96.9719 122.859 96.9719 122.861C96.9719 122.862 96.9719 122.863 96.9719 122.865C96.9719 122.866 96.9719 122.867 96.9719 122.869C96.9719 122.87 96.9719 122.871 96.9719 122.873C96.9719 122.874 96.9719 122.875 96.9719 122.877C96.9719 122.878 96.9719 122.879 96.9719 122.88C96.9719 122.882 96.9719 122.883 96.9719 122.884C96.9719 122.886 96.9719 122.887 96.9719 122.888C96.9719 122.89 96.9719 122.891 96.9719 122.892C96.9719 122.894 96.9719 122.895 96.9719 122.896C96.9719 122.898 96.9719 122.899 96.9719 122.9C96.9719 122.902 96.9719 122.903 96.9719 122.904C96.9719 122.906 96.9719 122.907 96.9719 122.908C96.9719 122.91 96.9719 122.911 96.9719 122.912C96.9719 122.914 96.9719 122.915 96.9719 122.916C96.9719 122.918 96.9719 122.919 96.9719 122.92C96.9719 122.922 96.9719 122.923 96.9719 122.924C96.9719 122.926 96.9719 122.927 96.9719 122.928C96.9719 122.93 96.9719 122.931 96.9719 122.932C96.9719 122.934 96.9719 122.935 96.9719 122.936C96.9719 122.937 96.9719 122.939 96.9719 122.94C96.9719 122.941 96.9719 122.943 96.9719 122.944C96.9719 122.945 96.9719 122.947 96.9719 122.948C96.9719 122.949 96.9719 122.951 96.9719 122.952C96.9719 122.953 96.9719 122.955 96.9719 122.956C96.9719 122.957 96.9719 122.959 96.9719 122.96C96.9719 122.961 96.9719 122.963 96.9719 122.964C96.9719 122.965 96.9719 122.967 96.9719 122.968C96.9719 122.969 96.9719 122.971 96.9719 122.972C96.9719 122.973 96.9719 122.975 96.9719 122.976C96.9719 122.977 96.9719 122.979 96.9719 122.98C96.9719 122.981 96.9719 122.983 96.9719 122.984C96.9719 122.985 96.9719 122.987 96.9719 122.988C96.9719 122.989 96.9719 122.991 96.9719 122.992C96.9719 122.993 96.9719 122.995 96.9719 122.996C96.9719 122.997 96.9719 122.999 96.9719 123C96.9719 123.001 96.9719 123.003 96.9719 123.004C96.9719 123.005 96.9719 123.007 96.9719 123.008H100.972C100.972 123.007 100.972 123.005 100.972 123.004C100.972 123.003 100.972 123.001 100.972 123C100.972 122.999 100.972 122.997 100.972 122.996C100.972 122.995 100.972 122.993 100.972 122.992C100.972 122.991 100.972 122.989 100.972 122.988C100.972 122.987 100.972 122.985 100.972 122.984C100.972 122.983 100.972 122.981 100.972 122.98C100.972 122.979 100.972 122.977 100.972 122.976C100.972 122.975 100.972 122.973 100.972 122.972C100.972 122.971 100.972 122.969 100.972 122.968C100.972 122.967 100.972 122.965 100.972 122.964C100.972 122.963 100.972 122.961 100.972 122.96C100.972 122.959 100.972 122.957 100.972 122.956C100.972 122.955 100.972 122.953 100.972 122.952C100.972 122.951 100.972 122.949 100.972 122.948C100.972 122.947 100.972 122.945 100.972 122.944C100.972 122.943 100.972 122.941 100.972 122.94C100.972 122.939 100.972 122.937 100.972 122.936C100.972 122.935 100.972 122.934 100.972 122.932C100.972 122.931 100.972 122.93 100.972 122.928C100.972 122.927 100.972 122.926 100.972 122.924C100.972 122.923 100.972 122.922 100.972 122.92C100.972 122.919 100.972 122.918 100.972 122.916C100.972 122.915 100.972 122.914 100.972 122.912C100.972 122.911 100.972 122.91 100.972 122.908C100.972 122.907 100.972 122.906 100.972 122.904C100.972 122.903 100.972 122.902 100.972 122.9C100.972 122.899 100.972 122.898 100.972 122.896C100.972 122.895 100.972 122.894 100.972 122.892C100.972 122.891 100.972 122.89 100.972 122.888C100.972 122.887 100.972 122.886 100.972 122.884C100.972 122.883 100.972 122.882 100.972 122.88C100.972 122.879 100.972 122.878 100.972 122.877C100.972 122.875 100.972 122.874 100.972 122.873C100.972 122.871 100.972 122.87 100.972 122.869C100.972 122.867 100.972 122.866 100.972 122.865C100.972 122.863 100.972 122.862 100.972 122.861C100.972 122.859 100.972 122.858 100.972 122.857C100.972 122.855 100.972 122.854 100.972 122.853C100.972 122.851 100.972 122.85 100.972 122.849C100.972 122.847 100.972 122.846 100.972 122.845C100.972 122.844 100.972 122.842 100.972 122.841C100.972 122.84 100.972 122.838 100.972 122.837C100.972 122.836 100.972 122.834 100.972 122.833C100.972 122.832 100.972 122.83 100.972 122.829C100.972 122.828 100.972 122.826 100.972 122.825C100.972 122.824 100.972 122.822 100.972 122.821C100.972 122.82 100.972 122.818 100.972 122.817C100.972 122.816 100.972 122.814 100.972 122.813C100.972 122.812 100.972 122.811 100.972 122.809C100.972 122.808 100.972 122.807 100.972 122.805C100.972 122.804 100.972 122.803 100.972 122.801C100.972 122.8 100.972 122.799 100.972 122.797C100.972 122.796 100.972 122.795 100.972 122.793C100.972 122.792 100.972 122.791 100.972 122.789C100.972 122.788 100.972 122.787 100.972 122.786C100.972 122.784 100.972 122.783 100.972 122.782C100.972 122.78 100.972 122.779 100.972 122.778C100.972 122.776 100.972 122.775 100.972 122.774C100.972 122.772 100.972 122.771 100.972 122.77C100.972 122.768 100.972 122.767 100.972 122.766C100.972 122.765 100.972 122.763 100.972 122.762C100.972 122.761 100.972 122.759 100.972 122.758C100.972 122.757 100.972 122.755 100.972 122.754C100.972 122.753 100.972 122.751 100.972 122.75C100.972 122.749 100.972 122.747 100.972 122.746C100.972 122.745 100.972 122.744 100.972 122.742C100.972 122.741 100.972 122.74 100.972 122.738C100.972 122.737 100.972 122.736 100.972 122.734C100.972 122.733 100.972 122.732 100.972 122.73C100.972 122.729 100.972 122.728 100.972 122.726C100.972 122.725 100.972 122.724 100.972 122.723C100.972 122.721 100.972 122.72 100.972 122.719C100.972 122.717 100.972 122.716 100.972 122.715C100.972 122.713 100.972 122.712 100.972 122.711C100.972 122.709 100.972 122.708 100.972 122.707C100.972 122.706 100.972 122.704 100.972 122.703C100.972 122.702 100.972 122.7 100.972 122.699C100.972 122.698 100.972 122.696 100.972 122.695C100.972 122.694 100.972 122.692 100.972 122.691C100.972 122.69 100.972 122.689 100.972 122.687C100.972 122.686 100.972 122.685 100.972 122.683C100.972 122.682 100.972 122.681 100.972 122.679C100.972 122.678 100.972 122.677 100.972 122.675C100.972 122.674 100.972 122.673 100.972 122.672C100.972 122.67 100.972 122.669 100.972 122.668C100.972 122.666 100.972 122.665 100.972 122.664C100.972 122.662 100.972 122.661 100.972 122.66C100.972 122.658 100.972 122.657 100.972 122.656C100.972 122.655 100.972 122.653 100.972 122.652C100.972 122.651 100.972 122.649 100.972 122.648C100.972 122.647 100.972 122.645 100.972 122.644C100.972 122.643 100.972 122.642 100.972 122.64C100.972 122.639 100.972 122.638 100.972 122.636C100.972 122.635 100.972 122.634 100.972 122.632C100.972 122.631 100.972 122.63 100.972 122.628C100.972 122.627 100.972 122.626 100.972 122.625C100.972 122.623 100.972 122.622 100.972 122.621C100.972 122.619 100.972 122.618 100.972 122.617C100.972 122.615 100.972 122.614 100.972 122.613C100.972 122.612 100.972 122.61 100.972 122.609C100.972 122.608 100.972 122.606 100.972 122.605C100.972 122.604 100.972 122.602 100.972 122.601C100.972 122.6 100.972 122.599 100.972 122.597C100.972 122.596 100.972 122.595 100.972 122.593C100.972 122.592 100.972 122.591 100.972 122.589C100.972 122.588 100.972 122.587 100.972 122.586C100.972 122.584 100.972 122.583 100.972 122.582C100.972 122.58 100.972 122.579 100.972 122.578C100.972 122.577 100.972 122.575 100.972 122.574C100.972 122.573 100.972 122.571 100.972 122.57C100.972 122.569 100.972 122.567 100.972 122.566C100.972 122.565 100.972 122.564 100.972 122.562C100.972 122.561 100.972 122.56 100.972 122.558C100.972 122.557 100.972 122.556 100.972 122.554C100.972 122.553 100.972 122.552 100.972 122.551C100.972 122.549 100.972 122.548 100.972 122.547C100.972 122.545 100.972 122.544 100.972 122.543C100.972 122.542 100.972 122.54 100.972 122.539C100.972 122.538 100.972 122.536 100.972 122.535C100.972 122.534 100.972 122.532 100.972 122.531C100.972 122.53 100.972 122.529 100.972 122.527C100.972 122.526 100.972 122.525 100.972 122.523C100.972 122.522 100.972 122.521 100.972 122.52C100.972 122.518 100.972 122.517 100.972 122.516C100.972 122.514 100.972 122.513 100.972 122.512C100.972 122.51 100.972 122.509 100.972 122.508C100.972 122.507 100.972 122.505 100.972 122.504C100.972 122.503 100.972 122.501 100.972 122.5C100.972 122.499 100.972 122.498 100.972 122.496C100.972 122.495 100.972 122.494 100.972 122.492C100.972 122.491 100.972 122.49 100.972 122.489C100.972 122.487 100.972 122.486 100.972 122.485C100.972 122.483 100.972 122.482 100.972 122.481C100.972 122.479 100.972 122.478 100.972 122.477C100.972 122.476 100.972 122.474 100.972 122.473C100.972 122.472 100.972 122.47 100.972 122.469C100.972 122.468 100.972 122.467 100.972 122.465C100.972 122.464 100.972 122.463 100.972 122.461C100.972 122.46 100.972 122.459 100.972 122.458C100.972 122.456 100.972 122.455 100.972 122.454C100.972 122.452 100.972 122.451 100.972 122.45C100.972 122.449 100.972 122.447 100.972 122.446C100.972 122.445 100.972 122.443 100.972 122.442C100.972 122.441 100.972 122.44 100.972 122.438C100.972 122.437 100.972 122.436 100.972 122.434C100.972 122.433 100.972 122.432 100.972 122.431C100.972 122.429 100.972 122.428 100.972 122.427C100.972 122.425 100.972 122.424 100.972 122.423C100.972 122.422 100.972 122.42 100.972 122.419C100.972 122.418 100.972 122.416 100.972 122.415C100.972 122.414 100.972 122.413 100.972 122.411C100.972 122.41 100.972 122.409 100.972 122.407C100.972 122.406 100.972 122.405 100.972 122.404C100.972 122.402 100.972 122.401 100.972 122.4C100.972 122.398 100.972 122.397 100.972 122.396C100.972 122.395 100.972 122.393 100.972 122.392C100.972 122.391 100.972 122.389 100.972 122.388C100.972 122.387 100.972 122.386 100.972 122.384C100.972 122.383 100.972 122.382 100.972 122.38C100.972 122.379 100.972 122.378 100.972 122.377C100.972 122.375 100.972 122.374 100.972 122.373C100.972 122.372 100.972 122.37 100.972 122.369C100.972 122.368 100.972 122.366 100.972 122.365C100.972 122.364 100.972 122.363 100.972 122.361C100.972 122.36 100.972 122.359 100.972 122.357C100.972 122.356 100.972 122.355 100.972 122.354C100.972 122.352 100.972 122.351 100.972 122.35C100.972 122.349 100.972 122.347 100.972 122.346C100.972 122.345 100.972 122.343 100.972 122.342C100.972 122.341 100.972 122.34 100.972 122.338C100.972 122.337 100.972 122.336 100.972 122.334C100.972 122.333 100.972 122.332 100.972 122.331C100.972 122.329 100.972 122.328 100.972 122.327C100.972 122.326 100.972 122.324 100.972 122.323C100.972 122.322 100.972 122.32 100.972 122.319C100.972 122.318 100.972 122.317 100.972 122.315C100.972 122.314 100.972 122.313 100.972 122.311C100.972 122.31 100.972 122.309 100.972 122.308C100.972 122.306 100.972 122.305 100.972 122.304C100.972 122.303 100.972 122.301 100.972 122.3C100.972 122.299 100.972 122.297 100.972 122.296C100.972 122.295 100.972 122.294 100.972 122.292C100.972 122.291 100.972 122.29 100.972 122.289C100.972 122.287 100.972 122.286 100.972 122.285C100.972 122.283 100.972 122.282 100.972 122.281C100.972 122.28 100.972 122.278 100.972 122.277C100.972 122.276 100.972 122.275 100.972 122.273C100.972 122.272 100.972 122.271 100.972 122.269C100.972 122.268 100.972 122.267 100.972 122.266C100.972 122.264 100.972 122.263 100.972 122.262C100.972 122.261 100.972 122.259 100.972 122.258C100.972 122.257 100.972 122.255 100.972 122.254C100.972 122.253 100.972 122.252 100.972 122.25C100.972 122.249 100.972 122.248 100.972 122.247C100.972 122.245 100.972 122.244 100.972 122.243C100.972 122.241 100.972 122.24 100.972 122.239C100.972 122.238 100.972 122.236 100.972 122.235C100.972 122.234 100.972 122.233 100.972 122.231C100.972 122.23 100.972 122.229 100.972 122.228C100.972 122.226 100.972 122.225 100.972 122.224C100.972 122.222 100.972 122.221 100.972 122.22C100.972 122.219 100.972 122.217 100.972 122.216C100.972 122.215 100.972 122.214 100.972 122.212C100.972 122.211 100.972 122.21 100.972 122.209C100.972 122.207 100.972 122.206 100.972 122.205C100.972 122.203 100.972 122.202 100.972 122.201C100.972 122.2 100.972 122.198 100.972 122.197C100.972 122.196 100.972 122.195 100.972 122.193C100.972 122.192 100.972 122.191 100.972 122.19C100.972 122.188 100.972 122.187 100.972 122.186C100.972 122.184 100.972 122.183 100.972 122.182C100.972 122.181 100.972 122.179 100.972 122.178C100.972 122.177 100.972 122.176 100.972 122.174C100.972 122.173 100.972 122.172 100.972 122.171C100.972 122.169 100.972 122.168 100.972 122.167C100.972 122.166 100.972 122.164 100.972 122.163C100.972 122.162 100.972 122.16 100.972 122.159C100.972 122.158 100.972 122.157 100.972 122.155C100.972 122.154 100.972 122.153 100.972 122.152C100.972 122.15 100.972 122.149 100.972 122.148C100.972 122.147 100.972 122.145 100.972 122.144C100.972 122.143 100.972 122.142 100.972 122.14C100.972 122.139 100.972 122.138 100.972 122.136C100.972 122.135 100.972 122.134 100.972 122.133C100.972 122.131 100.972 122.13 100.972 122.129C100.972 122.128 100.972 122.126 100.972 122.125C100.972 122.124 100.972 122.123 100.972 122.121C100.972 122.12 100.972 122.119 100.972 122.118C100.972 122.116 100.972 122.115 100.972 122.114C100.972 122.113 100.972 122.111 100.972 122.11C100.972 122.109 100.972 122.108 100.972 122.106C100.972 122.105 100.972 122.104 100.972 122.103C100.972 122.101 100.972 122.1 100.972 122.099C100.972 122.097 100.972 122.096 100.972 122.095C100.972 122.094 100.972 122.092 100.972 122.091C100.972 122.09 100.972 122.089 100.972 122.087C100.972 122.086 100.972 122.085 100.972 122.084C100.972 122.082 100.972 122.081 100.972 122.08C100.972 122.079 100.972 122.077 100.972 122.076C100.972 122.075 100.972 122.074 100.972 122.072C100.972 122.071 100.972 122.07 100.972 122.069C100.972 122.067 100.972 122.066 100.972 122.065C100.972 122.064 100.972 122.062 100.972 122.061C100.972 122.06 100.972 122.059 100.972 122.057C100.972 122.056 100.972 122.055 100.972 122.054C100.972 122.052 100.972 122.051 100.972 122.05C100.972 122.049 100.972 122.047 100.972 122.046C100.972 122.045 100.972 122.044 100.972 122.042C100.972 122.041 100.972 122.04 100.972 122.039C100.972 122.037 100.972 122.036 100.972 122.035C100.972 122.034 100.972 122.032 100.972 122.031C100.972 122.03 100.972 122.029 100.972 122.027C100.972 122.026 100.972 122.025 100.972 122.024C100.972 122.022 100.972 122.021 100.972 122.02C100.972 122.018 100.972 122.017 100.972 122.016C100.972 122.015 100.972 122.013 100.972 122.012C100.972 122.011 100.972 122.01 100.972 122.009C100.972 122.007 100.972 122.006 100.972 122.005C100.972 122.004 100.972 122.002 100.972 122.001C100.972 122 100.972 121.999 100.972 121.997C100.972 121.996 100.972 121.995 100.972 121.994C100.972 121.992 100.972 121.991 100.972 121.99C100.972 121.989 100.972 121.987 100.972 121.986C100.972 121.985 100.972 121.984 100.972 121.982C100.972 121.981 100.972 121.98 100.972 121.979C100.972 121.977 100.972 121.976 100.972 121.975C100.972 121.974 100.972 121.972 100.972 121.971C100.972 121.97 100.972 121.969 100.972 121.967C100.972 121.966 100.972 121.965 100.972 121.964C100.972 121.962 100.972 121.961 100.972 121.96C100.972 121.959 100.972 121.957 100.972 121.956C100.972 121.955 100.972 121.954 100.972 121.952C100.972 121.951 100.972 121.95 100.972 121.949C100.972 121.947 100.972 121.946 100.972 121.945C100.972 121.944 100.972 121.942 100.972 121.941C100.972 121.94 100.972 121.939 100.972 121.937C100.972 121.936 100.972 121.935 100.972 121.934C100.972 121.932 100.972 121.931 100.972 121.93C100.972 121.929 100.972 121.928 100.972 121.926C100.972 121.925 100.972 121.924 100.972 121.923C100.972 121.921 100.972 121.92 100.972 121.919C100.972 121.918 100.972 121.916 100.972 121.915C100.972 121.914 100.972 121.913 100.972 121.911C100.972 121.91 100.972 121.909 100.972 121.908C100.972 121.906 100.972 121.905 100.972 121.904C100.972 121.903 100.972 121.901 100.972 121.9C100.972 121.899 100.972 121.898 100.972 121.896C100.972 121.895 100.972 121.894 100.972 121.893C100.972 121.892 100.972 121.89 100.972 121.889C100.972 121.888 100.972 121.887 100.972 121.885C100.972 121.884 100.972 121.883 100.972 121.882C100.972 121.88 100.972 121.879 100.972 121.878C100.972 121.877 100.972 121.875 100.972 121.874C100.972 121.873 100.972 121.872 100.972 121.87C100.972 121.869 100.972 121.868 100.972 121.867C100.972 121.866 100.972 121.864 100.972 121.863C100.972 121.862 100.972 121.861 100.972 121.859C100.972 121.858 100.972 121.857 100.972 121.856C100.972 121.854 100.972 121.853 100.972 121.852C100.972 121.851 100.972 121.849 100.972 121.848C100.972 121.847 100.972 121.846 100.972 121.845C100.972 121.843 100.972 121.842 100.972 121.841C100.972 121.84 100.972 121.838 100.972 121.837C100.972 121.836 100.972 121.835 100.972 121.833C100.972 121.832 100.972 121.831 100.972 121.83C100.972 121.828 100.972 121.827 100.972 121.826C100.972 121.825 100.972 121.824 100.972 121.822C100.972 121.821 100.972 121.82 100.972 121.819C100.972 121.817 100.972 121.816 100.972 121.815C100.972 121.814 100.972 121.812 100.972 121.811C100.972 121.81 100.972 121.809 100.972 121.808C100.972 121.806 100.972 121.805 100.972 121.804C100.972 121.803 100.972 121.801 100.972 121.8C100.972 121.799 100.972 121.798 100.972 121.796C100.972 121.795 100.972 121.794 100.972 121.793C100.972 121.792 100.972 121.79 100.972 121.789C100.972 121.788 100.972 121.787 100.972 121.785C100.972 121.784 100.972 121.783 100.972 121.782C100.972 121.78 100.972 121.779 100.972 121.778C100.972 121.777 100.972 121.776 100.972 121.774C100.972 121.773 100.972 121.772 100.972 121.771C100.972 121.769 100.972 121.768 100.972 121.767C100.972 121.766 100.972 121.764 100.972 121.763C100.972 121.762 100.972 121.761 100.972 121.76C100.972 121.758 100.972 121.757 100.972 121.756C100.972 121.755 100.972 121.753 100.972 121.752C100.972 121.751 100.972 121.75 100.972 121.749C100.972 121.747 100.972 121.746 100.972 121.745C100.972 121.744 100.972 121.742 100.972 121.741C100.972 121.74 100.972 121.739 100.972 121.737C100.972 121.736 100.972 121.735 100.972 121.734C100.972 121.733 100.972 121.731 100.972 121.73C100.972 121.729 100.972 121.728 100.972 121.726C100.972 121.725 100.972 121.724 100.972 121.723C100.972 121.722 100.972 121.72 100.972 121.719C100.972 121.718 100.972 121.717 100.972 121.715C100.972 121.714 100.972 121.713 100.972 121.712C100.972 121.711 100.972 121.709 100.972 121.708C100.972 121.707 100.972 121.706 100.972 121.704C100.972 121.703 100.972 121.702 100.972 121.701C100.972 121.7 100.972 121.698 100.972 121.697C100.972 121.696 100.972 121.695 100.972 121.693C100.972 121.692 100.972 121.691 100.972 121.69C100.972 121.689 100.972 121.687 100.972 121.686C100.972 121.685 100.972 121.684 100.972 121.682C100.972 121.681 100.972 121.68 100.972 121.679C100.972 121.678 100.972 121.676 100.972 121.675C100.972 121.674 100.972 121.673 100.972 121.671C100.972 121.67 100.972 121.669 100.972 121.668C100.972 121.667 100.972 121.665 100.972 121.664C100.972 121.663 100.972 121.662 100.972 121.66C100.972 121.659 100.972 121.658 100.972 121.657C100.972 121.656 100.972 121.654 100.972 121.653C100.972 121.652 100.972 121.651 100.972 121.65C100.972 121.648 100.972 121.647 100.972 121.646C100.972 121.645 100.972 121.643 100.972 121.642C100.972 121.641 100.972 121.64 100.972 121.639C100.972 121.637 100.972 121.636 100.972 121.635C100.972 121.634 100.972 121.632 100.972 121.631C100.972 121.63 100.972 121.629 100.972 121.628C100.972 121.626 100.972 121.625 100.972 121.624C100.972 121.623 100.972 121.622 100.972 121.62C100.972 121.619 100.972 121.618 100.972 121.617C100.972 121.615 100.972 121.614 100.972 121.613C100.972 121.612 100.972 121.611 100.972 121.609C100.972 121.608 100.972 121.607 100.972 121.606C100.972 121.605 100.972 121.603 100.972 121.602C100.972 121.601 100.972 121.6 100.972 121.598C100.972 121.597 100.972 121.596 100.972 121.595C100.972 121.594 100.972 121.592 100.972 121.591C100.972 121.59 100.972 121.589 100.972 121.588C100.972 121.586 100.972 121.585 100.972 121.584C100.972 121.583 100.972 121.582 100.972 121.58C100.972 121.579 100.972 121.578 100.972 121.577C100.972 121.575 100.972 121.574 100.972 121.573C100.972 121.572 100.972 121.571 100.972 121.569C100.972 121.568 100.972 121.567 100.972 121.566C100.972 121.565 100.972 121.563 100.972 121.562C100.972 121.561 100.972 121.56 100.972 121.559C100.972 121.557 100.972 121.556 100.972 121.555C100.972 121.554 100.972 121.552 100.972 121.551C100.972 121.55 100.972 121.549 100.972 121.548C100.972 121.546 100.972 121.545 100.972 121.544C100.972 121.543 100.972 121.542 100.972 121.54C100.972 121.539 100.972 121.538 100.972 121.537C100.972 121.536 100.972 121.534 100.972 121.533C100.972 121.532 100.972 121.531 100.972 121.53C100.972 121.528 100.972 121.527 100.972 121.526C100.972 121.525 100.972 121.523 100.972 121.522C100.972 121.521 100.972 121.52 100.972 121.519C100.972 121.517 100.972 121.516 100.972 121.515C100.972 121.514 100.972 121.513 100.972 121.511C100.972 121.51 100.972 121.509 100.972 121.508C100.972 121.507 100.972 121.505 100.972 121.504C100.972 121.503 100.972 121.502 100.972 121.501C100.972 121.499 100.972 121.498 100.972 121.497C100.972 121.496 100.972 121.495 100.972 121.493C100.972 121.492 100.972 121.491 100.972 121.49C100.972 121.489 100.972 121.487 100.972 121.486C100.972 121.485 100.972 121.484 100.972 121.483C100.972 121.481 100.972 121.48 100.972 121.479C100.972 121.478 100.972 121.477 100.972 121.475C100.972 121.474 100.972 121.473 100.972 121.472C100.972 121.47 100.972 121.469 100.972 121.468C100.972 121.467 100.972 121.466 100.972 121.464C100.972 121.463 100.972 121.462 100.972 121.461C100.972 121.46 100.972 121.458 100.972 121.457C100.972 121.456 100.972 121.455 100.972 121.454C100.972 121.452 100.972 121.451 100.972 121.45C100.972 121.449 100.972 121.448 100.972 121.446C100.972 121.445 100.972 121.444 100.972 121.443C100.972 121.442 100.972 121.44 100.972 121.439C100.972 121.438 100.972 121.437 100.972 121.436C100.972 121.434 100.972 121.433 100.972 121.432C100.972 121.431 100.972 121.43 100.972 121.428C100.972 121.427 100.972 121.426 100.972 121.425C100.972 121.424 100.972 121.423 100.972 121.421C100.972 121.42 100.972 121.419 100.972 121.418C100.972 121.417 100.972 121.415 100.972 121.414C100.972 121.413 100.972 121.412 100.972 121.411C100.972 121.409 100.972 121.408 100.972 121.407C100.972 121.406 100.972 121.405 100.972 121.403C100.972 121.402 100.972 121.401 100.972 121.4C100.972 121.399 100.972 121.397 100.972 121.396C100.972 121.395 100.972 121.394 100.972 121.393C100.972 121.391 100.972 121.39 100.972 121.389C100.972 121.388 100.972 121.387 100.972 121.385C100.972 121.384 100.972 121.383 100.972 121.382C100.972 121.381 100.972 121.379 100.972 121.378C100.972 121.377 100.972 121.376 100.972 121.375C100.972 121.374 100.972 121.372 100.972 121.371C100.972 121.37 100.972 121.369 100.972 121.368C100.972 121.366 100.972 121.365 100.972 121.364C100.972 121.363 100.972 121.362 100.972 121.36C100.972 121.359 100.972 121.358 100.972 121.357C100.972 121.356 100.972 121.354 100.972 121.353C100.972 121.352 100.972 121.351 100.972 121.35C100.972 121.348 100.972 121.347 100.972 121.346C100.972 121.345 100.972 121.344 100.972 121.343C100.972 121.341 100.972 121.34 100.972 121.339C100.972 121.338 100.972 121.337 100.972 121.335C100.972 121.334 100.972 121.333 100.972 121.332C100.972 121.331 100.972 121.329 100.972 121.328C100.972 121.327 100.972 121.326 100.972 121.325C100.972 121.324 100.972 121.322 100.972 121.321C100.972 121.32 100.972 121.319 100.972 121.318C100.972 121.316 100.972 121.315 100.972 121.314C100.972 121.313 100.972 121.312 100.972 121.31C100.972 121.309 100.972 121.308 100.972 121.307C100.972 121.306 100.972 121.305 100.972 121.303C100.972 121.302 100.972 121.301 100.972 121.3C100.972 121.299 100.972 121.297 100.972 121.296C100.972 121.295 100.972 121.294 100.972 121.293C100.972 121.291 100.972 121.29 100.972 121.289C100.972 121.288 100.972 121.287 100.972 121.286C100.972 121.284 100.972 121.283 100.972 121.282C100.972 121.281 100.972 121.28 100.972 121.278C100.972 121.277 100.972 121.276 100.972 121.275C100.972 121.274 100.972 121.273 100.972 121.271C100.972 121.27 100.972 121.269 100.972 121.268C100.972 121.267 100.972 121.265 100.972 121.264C100.972 121.263 100.972 121.262 100.972 121.261C100.972 121.259 100.972 121.258 100.972 121.257C100.972 121.256 100.972 121.255 100.972 121.254C100.972 121.252 100.972 121.251 100.972 121.25C100.972 121.249 100.972 121.248 100.972 121.246C100.972 121.245 100.972 121.244 100.972 121.243C100.972 121.242 100.972 121.241 100.972 121.239C100.972 121.238 100.972 121.237 100.972 121.236C100.972 121.235 100.972 121.234 100.972 121.232C100.972 121.231 100.972 121.23 100.972 121.229C100.972 121.228 100.972 121.226 100.972 121.225C100.972 121.224 100.972 121.223 100.972 121.222C100.972 121.221 100.972 121.219 100.972 121.218C100.972 121.217 100.972 121.216 100.972 121.215C100.972 121.213 100.972 121.212 100.972 121.211C100.972 121.21 100.972 121.209 100.972 121.208C100.972 121.206 100.972 121.205 100.972 121.204C100.972 121.203 100.972 121.202 100.972 121.2C100.972 121.199 100.972 121.198 100.972 121.197C100.972 121.196 100.972 121.195 100.972 121.193C100.972 121.192 100.972 121.191 100.972 121.19C100.972 121.189 100.972 121.188 100.972 121.186C100.972 121.185 100.972 121.184 100.972 121.183C100.972 121.182 100.972 121.181 100.972 121.179C100.972 121.178 100.972 121.177 100.972 121.176C100.972 121.175 100.972 121.173 100.972 121.172C100.972 121.171 100.972 121.17 100.972 121.169C100.972 121.168 100.972 121.166 100.972 121.165C100.972 121.164 100.972 121.163 100.972 121.162C100.972 121.161 100.972 121.159 100.972 121.158C100.972 121.157 100.972 121.156 100.972 121.155C100.972 121.154 100.972 121.152 100.972 121.151C100.972 121.15 100.972 121.149 100.972 121.148C100.972 121.146 100.972 121.145 100.972 121.144C100.972 121.143 100.972 121.142 100.972 121.141C100.972 121.139 100.972 121.138 100.972 121.137C100.972 121.136 100.972 121.135 100.972 121.134C100.972 121.132 100.972 121.131 100.972 121.13C100.972 121.129 100.972 121.128 100.972 121.127C100.972 121.125 100.972 121.124 100.972 121.123C100.972 121.122 100.972 121.121 100.972 121.12C100.972 121.118 100.972 121.117 100.972 121.116C100.972 121.115 100.972 121.114 100.972 121.113C100.972 121.111 100.972 121.11 100.972 121.109C100.972 121.108 100.972 121.107 100.972 121.106C100.972 121.104 100.972 121.103 100.972 121.102C100.972 121.101 100.972 121.1 100.972 121.099C100.972 121.097 100.972 121.096 100.972 121.095C100.972 121.094 100.972 121.093 100.972 121.092C100.972 121.09 100.972 121.089 100.972 121.088H96.9719ZM96.9719 123.008C96.9719 123.607 96.9344 124.207 96.8593 124.808L100.828 125.304C100.924 124.54 100.972 123.774 100.972 123.008H96.9719ZM96.8827 124.664C96.9035 124.56 96.9286 124.518 96.9128 124.551C96.8993 124.579 96.865 124.643 96.7958 124.747C96.6552 124.958 96.4248 125.252 96.0773 125.638L99.0505 128.314C99.4709 127.847 99.8379 127.394 100.124 126.965C100.388 126.569 100.686 126.044 100.805 125.448L96.8827 124.664ZM96.0691 125.647C95.4913 126.297 94.8404 126.876 94.113 127.386L96.4068 130.662C97.386 129.977 98.2711 129.191 99.0587 128.305L96.0691 125.647ZM93.9311 127.529C93.6205 127.805 93.3989 127.955 93.2627 128.027C93.1189 128.104 93.1594 128.048 93.3399 128.048V132.048C94.6419 132.048 95.7687 131.248 96.5886 130.519L93.9311 127.529ZM103.452 96.336C106.45 96.336 109.651 96.1156 113.05 95.6798L112.542 91.7122C109.285 92.1297 106.256 92.336 103.452 92.336V96.336ZM113.05 95.6798C116.422 95.2475 119.587 94.7276 122.543 94.1189L121.737 90.2011C118.891 90.787 115.826 91.2912 112.542 91.7122L113.05 95.6798ZM122.548 94.118C124.671 93.6757 126.995 93.0608 129.517 92.2781L128.331 88.4579C125.904 89.2112 123.705 89.791 121.732 90.202L122.548 94.118ZM129.499 92.2837C132.194 91.4749 134.76 90.3952 137.191 89.0443L135.249 85.5477C133.072 86.7568 130.773 87.7251 128.349 88.4523L129.499 92.2837ZM137.164 89.059C139.767 87.6648 141.917 85.9128 143.562 83.7829L140.397 81.3371C139.142 82.9618 137.452 84.3672 135.275 85.533L137.164 89.059ZM143.528 83.8265C145.383 81.5587 146.284 78.8383 146.284 75.776H142.284C142.284 78.0044 141.648 79.8067 140.432 81.2935L143.528 83.8265ZM146.284 75.776C146.284 72.0515 145.044 68.7002 142.62 65.7916L139.547 68.3524C141.39 70.5638 142.284 73.0151 142.284 75.776H146.284ZM142.62 65.7916C140.303 63.0107 137.363 60.68 133.84 58.7831L131.944 62.3049C135.077 63.992 137.598 66.0133 139.547 68.3524L142.62 65.7916ZM133.894 58.8131C130.516 56.8578 126.998 55.3428 123.342 54.2725L122.218 58.1115C125.559 59.0892 128.782 60.4756 131.89 62.2749L133.894 58.8131ZM123.384 54.2855C119.786 53.1447 116.484 52.4245 113.489 52.1522L113.127 56.1358C115.764 56.3755 118.776 57.0206 122.175 58.0985L123.384 54.2855ZM111.377 53.6219L105.873 73.9739L109.735 75.0181L115.239 54.6661L111.377 53.6219ZM105.852 74.0579C104.915 78.2349 104.02 82.1552 103.168 85.819L107.064 86.725C107.919 83.0501 108.816 79.1197 109.755 74.9341L105.852 74.0579ZM103.16 85.8529C102.392 89.4402 101.833 92.1464 101.487 93.9618L105.417 94.7102C105.753 92.9416 106.304 90.2718 107.071 86.6911L103.16 85.8529ZM170.282 121.472L168.886 122.904L168.895 122.913L170.282 121.472ZM166.922 78.848L168.744 79.6727L168.747 79.6656L166.922 78.848ZM178.634 64.64L179.733 66.3106L179.741 66.3057L179.748 66.3009L178.634 64.64ZM209.354 61.952L208.574 63.7935L208.585 63.7982L209.354 61.952ZM218.954 68.672L220.581 69.8345L221.509 68.536L220.449 67.3433L218.954 68.672ZM216.554 72.032L215.093 73.3978L216.761 75.1826L218.181 73.1945L216.554 72.032ZM207.53 65.6L206.724 67.4306L206.746 67.4403L206.768 67.4494L207.53 65.6ZM180.746 68L181.866 69.6566L181.875 69.651L181.883 69.6453L180.746 68ZM173.354 118.784L171.962 120.22L171.967 120.225L171.973 120.231L173.354 118.784ZM201.002 124.064L201.376 126.029L201.399 126.024L201.421 126.02L201.002 124.064ZM208.586 121.952L209.249 123.839L210.37 123.445L210.56 122.272L208.586 121.952ZM212.522 97.664L214.496 97.9839L214.872 95.664H212.522V97.664ZM193.898 97.664L191.921 97.3599L191.567 99.664H193.898V97.664ZM194.474 93.92V91.92H192.758L192.497 93.6159L194.474 93.92ZM216.938 93.92L218.913 94.2319L219.278 91.92H216.938V93.92ZM212.042 124.928L212.854 126.756L213.848 126.314L214.017 125.24L212.042 124.928ZM203.018 127.616L203.423 129.575L203.423 129.575L203.018 127.616ZM191.786 126.768C182.851 126.768 176.244 124.433 171.668 120.031L168.895 122.913C174.432 128.239 182.161 130.768 191.786 130.768V126.768ZM171.678 120.04C167.187 115.664 164.794 109.182 164.794 100.256H160.794C160.794 109.89 163.393 117.552 168.886 122.904L171.678 120.04ZM164.794 100.256C164.794 92.2853 166.133 85.4416 168.744 79.6727L165.1 78.0233C162.207 84.4144 160.794 91.8427 160.794 100.256H164.794ZM168.747 79.6656C171.361 73.8289 175.031 69.4061 179.733 66.3106L177.534 62.9694C172.125 66.5299 167.986 71.5791 165.097 78.0304L168.747 79.6656ZM179.748 66.3009C184.434 63.1569 189.987 61.552 196.49 61.552V57.552C189.296 57.552 182.945 59.3391 177.52 62.9791L179.748 66.3009ZM196.49 61.552C201.067 61.552 205.083 62.3144 208.574 63.7935L210.134 60.1105C206.073 58.3896 201.513 57.552 196.49 57.552V61.552ZM208.585 63.7982C212.169 65.2918 215.115 67.3631 217.459 70.0007L220.449 67.3433C217.673 64.2209 214.218 61.8122 210.123 60.1058L208.585 63.7982ZM217.326 67.5095L214.926 70.8695L218.181 73.1945L220.581 69.8345L217.326 67.5095ZM218.015 70.6662C215.095 67.5424 211.856 65.2183 208.291 63.7506L206.768 67.4494C209.732 68.6697 212.509 70.6336 215.093 73.3978L218.015 70.6662ZM208.335 63.7694C204.827 62.2259 200.765 61.488 196.202 61.488V65.488C200.342 65.488 203.832 66.1581 206.724 67.4306L208.335 63.7694ZM196.202 61.488C189.896 61.488 184.336 63.0874 179.609 66.3547L181.883 69.6453C185.86 66.8966 190.603 65.488 196.202 65.488V61.488ZM179.625 66.3434C174.914 69.5306 171.326 74.0769 168.829 79.8816L172.503 81.4624C174.742 76.2591 177.874 72.3574 181.866 69.6566L179.625 66.3434ZM168.829 79.8816C166.329 85.6912 165.114 92.5005 165.114 100.256H169.114C169.114 92.9075 170.267 86.6608 172.503 81.4624L168.829 79.8816ZM165.114 100.256C165.114 108.879 167.27 115.673 171.962 120.22L174.746 117.348C171.118 113.831 169.114 108.273 169.114 100.256H165.114ZM171.973 120.231C176.697 124.74 183.48 126.832 191.978 126.832V122.832C184.092 122.832 178.459 120.892 174.735 117.337L171.973 120.231ZM191.978 126.832C195.406 126.832 198.542 126.569 201.376 126.029L200.628 122.099C198.086 122.583 195.206 122.832 191.978 122.832V126.832ZM201.421 126.02C204.184 125.428 206.794 124.701 209.249 123.839L207.923 120.065C205.642 120.867 203.196 121.548 200.583 122.108L201.421 126.02ZM210.56 122.272L214.496 97.9839L210.548 97.3441L206.612 121.632L210.56 122.272ZM212.522 95.664H193.898V99.664H212.522V95.664ZM195.875 97.9681L196.451 94.2241L192.497 93.6159L191.921 97.3599L195.875 97.9681ZM194.474 95.92H216.938V91.92H194.474V95.92ZM214.962 93.6081L210.066 124.616L214.017 125.24L218.913 94.2319L214.962 93.6081ZM211.23 123.1C209.104 124.045 206.247 124.906 202.613 125.657L203.423 129.575C207.213 128.79 210.372 127.859 212.854 126.756L211.23 123.1ZM202.613 125.657C199.033 126.398 195.425 126.768 191.786 126.768V130.768C195.699 130.768 199.578 130.37 203.423 129.575L202.613 125.657Z" fill="white"/>
</g>
<defs>
<filter id="filter0_d_2_19" x="-93" y="-43" width="186.154" height="257.626" filterUnits="userSpaceOnUse" color-interpolation-filters="sRGB">
<feFlood flood-opacity="0" result="BackgroundImageFix"/>
<feColorMatrix in="SourceAlpha" type="matrix" values="0 0 0 0 0 0 0 0 0 0 0 0 0 0 0 0 0 0 127 0" result="hardAlpha"/>
<feOffset dy="4"/>
<feGaussianBlur stdDeviation="2"/>
<feComposite in2="hardAlpha" operator="out"/>
<feColorMatrix type="matrix" values="0 0 0 0 0 0 0 0 0 0 0 0 0 0 0 0 0 0 0.25 0"/>
<feBlend mode="normal" in2="BackgroundImageFix" result="effect1_dropShadow_2_19"/>
<feBlend mode="normal" in="SourceGraphic" in2="effect1_dropShadow_2_19" result="shape"/>
</filter>
<filter id="filter1_d_2_19" x="203" y="0" width="186.154" height="257.626" filterUnits="userSpaceOnUse" color-interpolation-filters="sRGB">
<feFlood flood-opacity="0" result="BackgroundImageFix"/>
<feColorMatrix in="SourceAlpha" type="matrix" values="0 0 0 0 0 0 0 0 0 0 0 0 0 0 0 0 0 0 127 0" result="hardAlpha"/>
<feOffset dy="4"/>
<feGaussianBlur stdDeviation="2"/>
<feComposite in2="hardAlpha" operator="out"/>
<feColorMatrix type="matrix" values="0 0 0 0 0 0 0 0 0 0 0 0 0 0 0 0 0 0 0.25 0"/>
<feBlend mode="normal" in2="BackgroundImageFix" result="effect1_dropShadow_2_19"/>
<feBlend mode="normal" in="SourceGraphic" in2="effect1_dropShadow_2_19" result="shape"/>
</filter>
<filter id="filter2_d_2_19" x="88.5719" y="48.384" width="134.382" height="92.48" filterUnits="userSpaceOnUse" color-interpolation-filters="sRGB">
<feFlood flood-opacity="0" result="BackgroundImageFix"/>
<feColorMatrix in="SourceAlpha" type="matrix" values="0 0 0 0 0 0 0 0 0 0 0 0 0 0 0 0 0 0 127 0" result="hardAlpha"/>
<feOffset dy="4"/>
<feGaussianBlur stdDeviation="2"/>
<feComposite in2="hardAlpha" operator="out"/>
<feColorMatrix type="matrix" values="0 0 0 0 0 0 0 0 0 0 0 0 0 0 0 0 0 0 0.25 0"/>
<feBlend mode="normal" in2="BackgroundImageFix" result="effect1_dropShadow_2_19"/>
<feBlend mode="normal" in="SourceGraphic" in2="effect1_dropShadow_2_19" result="shape"/>
</filter>
<linearGradient id="paint0_linear_2_19" x1="55.8118" y1="-43" x2="55.8118" y2="194" gradientUnits="userSpaceOnUse">
<stop stop-color="#D9D9D9"/>
<stop offset="1" stop-color="#FF8383" stop-opacity="0"/>
</linearGradient>
<linearGradient id="paint1_linear_2_19" x1="351.812" y1="0" x2="351.812" y2="237" gradientUnits="userSpaceOnUse">
<stop stop-color="#D9D9D9"/>
<stop offset="1" stop-color="#FF8383" stop-opacity="0"/>
</linearGradient>
<linearGradient id="paint2_linear_2_19" x1="155" y1="0" x2="155" y2="180" gradientUnits="userSpaceOnUse">
<stop stop-color="#FFEAEA"/>
<stop offset="1" stop-color="#FFEAEA" stop-opacity="0"/>
</linearGradient>
<radialGradient id="paint3_radial_2_19" cx="0" cy="0" r="1" gradientUnits="userSpaceOnUse" gradientTransform="translate(155 90) rotate(90) scale(90)">
<stop stop-color="#FD0000"/>
<stop offset="1" stop-color="white"/>
</radialGradient>
<linearGradient id="paint4_linear_2_19" x1="155" y1="0" x2="155" y2="180" gradientUnits="userSpaceOnUse">
<stop stop-color="white"/>
<stop offset="1" stop-color="#797979" stop-opacity="0.62"/>
</linearGradient>
<clipPath id="clip0_2_19">
<path d="M0 0H230C274.183 0 310 35.8172 310 80V180H80C35.8172 180 0 144.183 0 100V0Z" fill="white"/>
</clipPath>
</defs>
</svg>
