<svg width="181" height="180" viewBox="0 0 181 180" fill="none" xmlns="http://www.w3.org/2000/svg">
<rect width="180" height="180" rx="90" fill="url(#paint0_linear_1_4)"/>
<rect width="180" height="180" rx="90" fill="url(#paint1_radial_1_4)" fill-opacity="0.2"/>
<circle cx="131" cy="38" r="8" fill="white"/>
<path d="M0.0424996 90.306L179.975 80.6187L180.048 98.5125L0.0424996 90.306Z" fill="white"/>
<g filter="url(#filter0_d_1_4)">
<path d="M28.3399 130.048C27.8279 130.048 27.5719 129.621 27.5719 128.768C27.5719 126.805 27.8705 123.733 28.4679 119.552C29.1505 115.371 30.0039 110.549 31.0279 105.088C32.1372 99.5413 33.2892 93.7813 34.4839 87.808C35.7639 81.7493 37.0439 75.904 38.3239 70.272C39.6039 64.5547 40.7559 59.4773 41.7799 55.04C42.0359 53.9307 41.8225 53.0347 41.1399 52.352C40.5425 51.584 40.2439 50.9013 40.2439 50.304C40.2439 49.8773 40.4145 49.4507 40.7559 49.024C41.0972 48.5973 41.7372 48.384 42.6759 48.384C43.3585 48.384 44.5105 48.512 46.1319 48.768C47.7532 48.9387 49.1612 49.152 50.3559 49.408C54.0252 50.176 57.8652 51.2853 61.8759 52.736C65.9719 54.1013 69.8119 55.8933 73.3959 58.112C76.9799 60.2453 79.8385 62.848 81.9719 65.92C82.9105 67.2 83.6359 68.5653 84.1479 70.016C84.7452 71.4667 85.0439 72.96 85.0439 74.496C85.0439 77.312 84.2759 79.7867 82.7399 81.92C81.2039 84.0533 79.1985 85.888 76.7239 87.424C74.3345 88.96 71.7745 90.24 69.0439 91.264C66.3985 92.288 63.9665 93.0987 61.7479 93.696C56.2865 95.1467 50.6972 96.0853 44.9799 96.512C46.4305 98.816 48.0945 101.205 49.9719 103.68C51.8492 106.155 53.6412 108.459 55.3479 110.592C57.1399 112.725 58.5479 114.347 59.5719 115.456C61.5345 117.589 63.6679 119.723 65.9719 121.856C68.3612 123.904 70.8359 125.611 73.3959 126.976C75.9559 128.256 78.5159 128.896 81.0759 128.896C82.5265 128.896 83.4225 128.725 83.7639 128.384C84.1052 128.128 84.4465 128 84.7879 128C84.9585 128 85.0439 128.128 85.0439 128.384C85.0439 128.725 85.0012 129.067 84.9159 129.408C84.6599 130.091 83.9772 130.816 82.8679 131.584C81.8439 132.437 80.2225 132.864 78.0039 132.864C74.5905 132.864 71.2199 131.883 67.8919 129.92C64.6492 127.957 61.3639 125.269 58.0359 121.856C54.7932 118.443 51.5079 114.603 48.1799 110.336C44.8519 105.984 41.4812 101.504 38.0679 96.896C37.8119 98.176 37.3852 100.181 36.7879 102.912C36.2759 105.557 35.7212 108.544 35.1239 111.872C34.6119 115.115 34.2279 118.187 33.9719 121.088C33.9719 121.685 33.9719 122.325 33.9719 123.008C33.9719 123.691 33.9292 124.373 33.8439 125.056C33.7585 125.483 33.3319 126.123 32.5639 126.976C31.8812 127.744 31.1132 128.427 30.2599 129.024C29.4919 129.707 28.8519 130.048 28.3399 130.048ZM38.4519 94.336C41.3532 94.336 44.4679 94.1227 47.7959 93.696C51.1239 93.2693 54.2385 92.7573 57.1399 92.16C59.1879 91.7333 61.4492 91.136 63.9239 90.368C66.4839 89.6 68.9159 88.576 71.2199 87.296C73.6092 86.016 75.5292 84.4373 76.9799 82.56C78.5159 80.6827 79.2839 78.4213 79.2839 75.776C79.2839 72.5333 78.2172 69.632 76.0839 67.072C73.9505 64.512 71.2199 62.336 67.8919 60.544C64.6492 58.6667 61.2785 57.216 57.7799 56.192C54.2812 55.0827 51.1239 54.4 48.3079 54.144L42.8039 74.496C41.8652 78.6773 40.9692 82.6027 40.1159 86.272C39.3479 89.856 38.7932 92.544 38.4519 94.336ZM126.786 128.768C117.506 128.768 110.338 126.336 105.282 121.472C100.29 116.608 97.7939 109.536 97.7939 100.256C97.7939 92.064 99.1699 84.928 101.922 78.848C104.674 72.704 108.578 67.968 113.634 64.64C118.69 61.248 124.642 59.552 131.49 59.552C136.29 59.552 140.578 60.352 144.354 61.952C148.194 63.552 151.394 65.792 153.954 68.672L151.554 72.032C148.802 69.088 145.794 66.944 142.53 65.6C139.33 64.192 135.554 63.488 131.202 63.488C125.25 63.488 120.098 64.992 115.746 68C111.394 70.944 108.034 75.168 105.666 80.672C103.298 86.176 102.114 92.704 102.114 100.256C102.114 108.576 104.194 114.752 108.354 118.784C112.578 122.816 118.786 124.832 126.978 124.832C130.306 124.832 133.314 124.576 136.002 124.064C138.69 123.488 141.218 122.784 143.586 121.952L147.522 97.664H128.898L129.474 93.92H151.938L147.042 124.928C144.738 125.952 141.73 126.848 138.018 127.616C134.306 128.384 130.562 128.768 126.786 128.768Z" fill="url(#paint2_linear_1_4)" shape-rendering="crispEdges"/>
<path d="M28.4679 119.552L26.494 119.23L26.4908 119.249L26.488 119.269L28.4679 119.552ZM31.0279 105.088L29.0667 104.696L29.0644 104.708L29.0621 104.719L31.0279 105.088ZM34.4839 87.808L32.5271 87.3946L32.5248 87.4052L32.5227 87.4158L34.4839 87.808ZM38.3239 70.272L40.2742 70.7152L40.2756 70.7089L38.3239 70.272ZM41.7799 55.04L39.8311 54.5903L39.8311 54.5903L41.7799 55.04ZM41.1399 52.352L39.5612 53.5799L39.6376 53.6782L39.7257 53.7662L41.1399 52.352ZM40.7559 49.024L42.3176 50.2734L42.3176 50.2734L40.7559 49.024ZM46.1319 48.768L45.8199 50.7435L45.8711 50.7516L45.9225 50.757L46.1319 48.768ZM50.3559 49.408L49.9368 51.3636L49.9462 51.3656L50.3559 49.408ZM61.8759 52.736L61.1956 54.6168L61.2194 54.6254L61.2434 54.6334L61.8759 52.736ZM73.3959 58.112L72.3432 59.8125L72.358 59.8217L72.3729 59.8306L73.3959 58.112ZM81.9719 65.92L80.3291 67.0608L80.3438 67.082L80.3591 67.1027L81.9719 65.92ZM84.1479 70.016L82.2619 70.6816L82.279 70.73L82.2985 70.7775L84.1479 70.016ZM82.7399 81.92L84.3629 83.0886L84.3629 83.0886L82.7399 81.92ZM76.7239 87.424L75.6692 85.7247L75.6557 85.7331L75.6424 85.7416L76.7239 87.424ZM69.0439 91.264L68.3416 89.3913L68.3317 89.3951L68.3219 89.3989L69.0439 91.264ZM61.7479 93.696L62.2613 95.629L62.2678 95.6272L61.7479 93.696ZM44.9799 96.512L44.831 94.5175L41.5164 94.7649L43.2874 97.5776L44.9799 96.512ZM55.3479 110.592L53.7861 111.841L53.8011 111.86L53.8165 111.878L55.3479 110.592ZM59.5719 115.456L61.0437 114.102L61.0415 114.099L59.5719 115.456ZM65.9719 121.856L64.6131 123.324L64.6412 123.35L64.6703 123.375L65.9719 121.856ZM73.3959 126.976L72.4547 128.741L72.4779 128.753L72.5015 128.765L73.3959 126.976ZM83.7639 128.384L82.5639 126.784L82.4502 126.869L82.3497 126.97L83.7639 128.384ZM84.9159 129.408L86.7885 130.11L86.8285 130.004L86.8562 129.893L84.9159 129.408ZM82.8679 131.584L81.7295 129.94L81.6561 129.99L81.5875 130.048L82.8679 131.584ZM67.8919 129.92L66.8563 131.631L66.8661 131.637L66.8759 131.643L67.8919 129.92ZM58.0359 121.856L56.5859 123.233L56.5948 123.243L56.6039 123.252L58.0359 121.856ZM48.1799 110.336L46.5912 111.551L46.597 111.559L46.6029 111.566L48.1799 110.336ZM38.0679 96.896L39.675 95.7055L36.991 92.0822L36.1067 96.5038L38.0679 96.896ZM36.7879 102.912L34.8341 102.485L34.8289 102.508L34.8243 102.532L36.7879 102.912ZM35.1239 111.872L33.1553 111.519L33.1516 111.539L33.1483 111.56L35.1239 111.872ZM33.9719 121.088L31.9796 120.912L31.9719 121V121.088H33.9719ZM33.8439 125.056L35.805 125.448L35.8194 125.377L35.8284 125.304L33.8439 125.056ZM32.5639 126.976L31.0773 125.638L31.0691 125.647L32.5639 126.976ZM30.2599 129.024L29.113 127.386L29.0179 127.452L28.9311 127.529L30.2599 129.024ZM38.4519 94.336L36.4872 93.9618L36.035 96.336H38.4519V94.336ZM47.7959 93.696L47.5415 91.7122L47.5415 91.7122L47.7959 93.696ZM57.1399 92.16L57.5432 94.1189L57.5478 94.118L57.1399 92.16ZM63.9239 90.368L63.3492 88.4523L63.3401 88.4551L63.3311 88.4579L63.9239 90.368ZM71.2199 87.296L70.2754 85.533L70.262 85.5403L70.2486 85.5477L71.2199 87.296ZM76.9799 82.56L75.432 81.2935L75.4143 81.3151L75.3973 81.3371L76.9799 82.56ZM76.0839 67.072L74.5474 68.3524L74.5474 68.3524L76.0839 67.072ZM67.8919 60.544L66.8898 62.2749L66.9165 62.2903L66.9437 62.3049L67.8919 60.544ZM57.7799 56.192L57.1754 58.0985L57.1967 58.1052L57.2181 58.1115L57.7799 56.192ZM48.3079 54.144L48.4889 52.1522L46.8158 52.0001L46.3772 53.6219L48.3079 54.144ZM42.8039 74.496L40.8732 73.9739L40.8619 74.0157L40.8524 74.0579L42.8039 74.496ZM40.1159 86.272L38.1679 85.819L38.1639 85.8359L38.1603 85.8529L40.1159 86.272ZM28.3399 128.048C28.4951 128.048 28.7282 128.082 28.9752 128.22C29.2248 128.358 29.3867 128.545 29.4789 128.699C29.5222 128.771 29.5476 128.831 29.5616 128.871C29.5757 128.91 29.5805 128.933 29.581 128.936C29.5813 128.937 29.5719 128.887 29.5719 128.768H25.5719C25.5719 129.329 25.6444 130.083 26.0489 130.757C26.551 131.594 27.4063 132.048 28.3399 132.048V128.048ZM29.5719 128.768C29.5719 126.957 29.8522 124.004 30.4478 119.835L26.488 119.269C25.8889 123.463 25.5719 126.654 25.5719 128.768H29.5719ZM30.4417 119.874C31.1212 115.712 31.9717 110.907 32.9936 105.457L29.0621 104.719C28.0361 110.192 27.1798 115.029 26.494 119.23L30.4417 119.874ZM32.989 105.48C34.0984 99.9336 35.2504 94.1736 36.445 88.2002L32.5227 87.4158C31.328 93.3891 30.176 99.1491 29.0667 104.696L32.989 105.48ZM36.4407 88.2214C37.7187 82.172 38.9966 76.3366 40.2741 70.7152L36.3736 69.8288C35.0912 75.4714 33.809 81.3267 32.5271 87.3946L36.4407 88.2214ZM40.2756 70.7089C41.5549 64.9947 42.7059 59.9218 43.7287 55.4897L39.8311 54.5903C38.8059 59.0329 37.6529 64.1146 36.3722 69.8351L40.2756 70.7089ZM43.7287 55.4897C44.1072 53.8493 43.8185 52.2022 42.5541 50.9378L39.7257 53.7662C39.8266 53.8671 39.9645 54.012 39.8311 54.5903L43.7287 55.4897ZM42.7186 51.1241C42.4927 50.8337 42.3663 50.6136 42.3002 50.4624C42.2349 50.3132 42.2439 50.2675 42.2439 50.304H38.2439C38.2439 51.5492 38.8493 52.6646 39.5612 53.5799L42.7186 51.1241ZM42.2439 50.304C42.2439 50.3316 42.241 50.3563 42.237 50.3762C42.2331 50.3958 42.229 50.4063 42.2288 50.4068C42.2288 50.4069 42.2333 50.3956 42.2469 50.373C42.2605 50.3502 42.2829 50.3168 42.3176 50.2734L39.1941 47.7746C38.6499 48.4549 38.2439 49.3088 38.2439 50.304H42.2439ZM42.3176 50.2734C42.1964 50.4249 42.084 50.4548 42.1243 50.4414C42.1779 50.4235 42.3439 50.384 42.6759 50.384V46.384C41.5513 46.384 40.1172 46.6208 39.1941 47.7746L42.3176 50.2734ZM42.6759 50.384C43.1854 50.384 44.1987 50.4875 45.8199 50.7435L46.4438 46.7925C44.8224 46.5365 43.5317 46.384 42.6759 46.384V50.384ZM45.9225 50.757C47.4951 50.9225 48.8299 51.1264 49.9368 51.3636L50.7749 47.4524C49.4926 47.1776 48.0113 46.9548 46.3412 46.779L45.9225 50.757ZM49.9462 51.3656C53.5121 52.1119 57.2614 53.1937 61.1956 54.6168L62.5562 50.8552C58.469 49.3769 54.5383 48.2401 50.7656 47.4504L49.9462 51.3656ZM61.2434 54.6334C65.1958 55.9508 68.8943 57.6775 72.3432 59.8125L74.4486 56.4115C70.7294 54.1091 66.748 52.2518 62.5083 50.8386L61.2434 54.6334ZM72.3729 59.8306C75.7398 61.8347 78.3766 64.2492 80.3291 67.0608L83.6146 64.7792C81.3005 61.4468 78.2199 58.6559 74.4188 56.3934L72.3729 59.8306ZM80.3591 67.1027C81.1856 68.2297 81.8172 69.4216 82.2619 70.6816L86.0339 69.3504C85.4546 67.709 84.6355 66.1702 83.5847 64.7373L80.3591 67.1027ZM82.2985 70.7775C82.7986 71.9919 83.0439 73.2269 83.0439 74.496H87.0439C87.0439 72.6931 86.6919 70.9414 85.9972 69.2545L82.2985 70.7775ZM83.0439 74.496C83.0439 76.9242 82.3899 78.9832 81.1168 80.7514L84.3629 83.0886C86.1619 80.5901 87.0439 77.6998 87.0439 74.496H83.0439ZM81.1168 80.7514C79.7494 82.6505 77.9455 84.3118 75.6692 85.7247L77.7786 89.1233C80.4516 87.4642 82.6583 85.4561 84.3629 83.0886L81.1168 80.7514ZM75.6424 85.7416C73.3755 87.1989 70.943 88.4158 68.3416 89.3913L69.7461 93.1367C72.606 92.0642 75.2936 90.7211 77.8054 89.1064L75.6424 85.7416ZM68.3219 89.3989C65.728 90.4029 63.3645 91.1895 61.2279 91.7648L62.2678 95.6272C64.5686 95.0078 67.069 94.1731 69.7659 93.1291L68.3219 89.3989ZM61.2344 91.763C55.8942 93.1815 50.427 94.0999 44.831 94.5175L45.1287 98.5065C50.9674 98.0707 56.6789 97.1118 62.2613 95.629L61.2344 91.763ZM43.2874 97.5776C44.773 99.937 46.4708 102.374 48.3785 104.889L51.5653 102.471C49.7182 100.037 48.0881 97.695 46.6723 95.4464L43.2874 97.5776ZM48.3785 104.889C50.2648 107.375 52.0674 109.693 53.7861 111.841L56.9096 109.343C55.215 107.224 53.4336 104.934 51.5653 102.471L48.3785 104.889ZM53.8165 111.878C55.6148 114.019 57.0464 115.669 58.1023 116.813L61.0415 114.099C60.0493 113.025 58.6649 111.431 56.8793 109.306L53.8165 111.878ZM58.1 116.81C60.1017 118.986 62.2731 121.157 64.6131 123.324L67.3307 120.388C65.0627 118.288 62.9674 116.193 61.0437 114.102L58.1 116.81ZM64.6703 123.375C67.1612 125.51 69.7556 127.301 72.4547 128.741L74.3371 125.211C71.9161 123.92 69.5613 122.298 67.2735 120.337L64.6703 123.375ZM72.5015 128.765C75.306 130.167 78.1703 130.896 81.0759 130.896V126.896C78.8614 126.896 76.6057 126.345 74.2903 125.187L72.5015 128.765ZM81.0759 130.896C81.8626 130.896 82.5886 130.851 83.2101 130.733C83.7539 130.629 84.5663 130.41 85.1781 129.798L82.3497 126.97C82.5072 126.812 82.6386 126.76 82.6392 126.76C82.6463 126.757 82.5964 126.778 82.4617 126.803C82.1872 126.856 81.7398 126.896 81.0759 126.896V130.896ZM84.9639 129.984C85.0076 129.951 85.0128 129.956 84.9781 129.969C84.9396 129.983 84.8729 130 84.7879 130V126C83.9155 126 83.1636 126.334 82.5639 126.784L84.9639 129.984ZM84.7879 130C84.5793 130 84.2997 129.96 84.0055 129.813C83.7029 129.662 83.4726 129.441 83.3158 129.205C83.0376 128.788 83.0439 128.415 83.0439 128.384H87.0439C87.0439 128.097 87.0075 127.532 86.644 126.987C86.185 126.298 85.4558 126 84.7879 126V130ZM83.0439 128.384C83.0439 128.557 83.0225 128.735 82.9756 128.923L86.8562 129.893C86.9799 129.398 87.0439 128.894 87.0439 128.384H83.0439ZM83.0432 128.706C83.0079 128.8 82.7491 129.234 81.7295 129.94L84.0063 133.228C85.2053 132.398 86.3118 131.381 86.7885 130.11L83.0432 128.706ZM81.5875 130.048C81.0945 130.458 80.0414 130.864 78.0039 130.864V134.864C80.4037 134.864 82.5933 134.416 84.1482 133.12L81.5875 130.048ZM78.0039 130.864C74.9931 130.864 71.9695 130.003 68.9078 128.197L66.8759 131.643C70.4703 133.762 74.188 134.864 78.0039 134.864V130.864ZM68.9275 128.209C65.8613 126.353 62.7065 123.781 59.4679 120.46L56.6039 123.252C60.0213 126.757 63.4371 129.562 66.8563 131.631L68.9275 128.209ZM59.4859 120.479C56.2939 117.119 53.0507 113.329 49.7569 109.106L46.6029 111.566C49.965 115.877 53.2925 119.767 56.5859 123.233L59.4859 120.479ZM49.7686 109.121C46.4471 104.778 43.0825 100.306 39.675 95.7055L36.4608 98.0865C39.8799 102.702 43.2567 107.19 46.5912 111.551L49.7686 109.121ZM36.1067 96.5038C35.8545 97.765 35.431 99.7556 34.8341 102.485L38.7417 103.339C39.3394 100.607 39.7693 98.587 40.029 97.2882L36.1067 96.5038ZM34.8243 102.532C34.3102 105.188 33.7539 108.184 33.1553 111.519L37.0924 112.225C37.6885 108.904 38.2415 105.927 38.7514 103.292L34.8243 102.532ZM33.1483 111.56C32.6301 114.842 32.2401 117.96 31.9796 120.912L35.9641 121.264C36.2156 118.413 36.5937 115.387 37.0994 112.184L33.1483 111.56ZM31.9719 121.088C31.9719 121.089 31.9719 121.09 31.9719 121.092C31.9719 121.093 31.9719 121.094 31.9719 121.095C31.9719 121.096 31.9719 121.097 31.9719 121.099C31.9719 121.1 31.9719 121.101 31.9719 121.102C31.9719 121.103 31.9719 121.104 31.9719 121.106C31.9719 121.107 31.9719 121.108 31.9719 121.109C31.9719 121.11 31.9719 121.111 31.9719 121.113C31.9719 121.114 31.9719 121.115 31.9719 121.116C31.9719 121.117 31.9719 121.118 31.9719 121.12C31.9719 121.121 31.9719 121.122 31.9719 121.123C31.9719 121.124 31.9719 121.125 31.9719 121.127C31.9719 121.128 31.9719 121.129 31.9719 121.13C31.9719 121.131 31.9719 121.132 31.9719 121.134C31.9719 121.135 31.9719 121.136 31.9719 121.137C31.9719 121.138 31.9719 121.139 31.9719 121.141C31.9719 121.142 31.9719 121.143 31.9719 121.144C31.9719 121.145 31.9719 121.146 31.9719 121.148C31.9719 121.149 31.9719 121.15 31.9719 121.151C31.9719 121.152 31.9719 121.154 31.9719 121.155C31.9719 121.156 31.9719 121.157 31.9719 121.158C31.9719 121.159 31.9719 121.161 31.9719 121.162C31.9719 121.163 31.9719 121.164 31.9719 121.165C31.9719 121.166 31.9719 121.168 31.9719 121.169C31.9719 121.17 31.9719 121.171 31.9719 121.172C31.9719 121.173 31.9719 121.175 31.9719 121.176C31.9719 121.177 31.9719 121.178 31.9719 121.179C31.9719 121.181 31.9719 121.182 31.9719 121.183C31.9719 121.184 31.9719 121.185 31.9719 121.186C31.9719 121.188 31.9719 121.189 31.9719 121.19C31.9719 121.191 31.9719 121.192 31.9719 121.193C31.9719 121.195 31.9719 121.196 31.9719 121.197C31.9719 121.198 31.9719 121.199 31.9719 121.2C31.9719 121.202 31.9719 121.203 31.9719 121.204C31.9719 121.205 31.9719 121.206 31.9719 121.208C31.9719 121.209 31.9719 121.21 31.9719 121.211C31.9719 121.212 31.9719 121.213 31.9719 121.215C31.9719 121.216 31.9719 121.217 31.9719 121.218C31.9719 121.219 31.9719 121.221 31.9719 121.222C31.9719 121.223 31.9719 121.224 31.9719 121.225C31.9719 121.226 31.9719 121.228 31.9719 121.229C31.9719 121.23 31.9719 121.231 31.9719 121.232C31.9719 121.234 31.9719 121.235 31.9719 121.236C31.9719 121.237 31.9719 121.238 31.9719 121.239C31.9719 121.241 31.9719 121.242 31.9719 121.243C31.9719 121.244 31.9719 121.245 31.9719 121.246C31.9719 121.248 31.9719 121.249 31.9719 121.25C31.9719 121.251 31.9719 121.252 31.9719 121.254C31.9719 121.255 31.9719 121.256 31.9719 121.257C31.9719 121.258 31.9719 121.259 31.9719 121.261C31.9719 121.262 31.9719 121.263 31.9719 121.264C31.9719 121.265 31.9719 121.267 31.9719 121.268C31.9719 121.269 31.9719 121.27 31.9719 121.271C31.9719 121.273 31.9719 121.274 31.9719 121.275C31.9719 121.276 31.9719 121.277 31.9719 121.278C31.9719 121.28 31.9719 121.281 31.9719 121.282C31.9719 121.283 31.9719 121.284 31.9719 121.286C31.9719 121.287 31.9719 121.288 31.9719 121.289C31.9719 121.29 31.9719 121.291 31.9719 121.293C31.9719 121.294 31.9719 121.295 31.9719 121.296C31.9719 121.297 31.9719 121.299 31.9719 121.3C31.9719 121.301 31.9719 121.302 31.9719 121.303C31.9719 121.305 31.9719 121.306 31.9719 121.307C31.9719 121.308 31.9719 121.309 31.9719 121.31C31.9719 121.312 31.9719 121.313 31.9719 121.314C31.9719 121.315 31.9719 121.316 31.9719 121.318C31.9719 121.319 31.9719 121.32 31.9719 121.321C31.9719 121.322 31.9719 121.324 31.9719 121.325C31.9719 121.326 31.9719 121.327 31.9719 121.328C31.9719 121.329 31.9719 121.331 31.9719 121.332C31.9719 121.333 31.9719 121.334 31.9719 121.335C31.9719 121.337 31.9719 121.338 31.9719 121.339C31.9719 121.34 31.9719 121.341 31.9719 121.343C31.9719 121.344 31.9719 121.345 31.9719 121.346C31.9719 121.347 31.9719 121.348 31.9719 121.35C31.9719 121.351 31.9719 121.352 31.9719 121.353C31.9719 121.354 31.9719 121.356 31.9719 121.357C31.9719 121.358 31.9719 121.359 31.9719 121.36C31.9719 121.362 31.9719 121.363 31.9719 121.364C31.9719 121.365 31.9719 121.366 31.9719 121.368C31.9719 121.369 31.9719 121.37 31.9719 121.371C31.9719 121.372 31.9719 121.374 31.9719 121.375C31.9719 121.376 31.9719 121.377 31.9719 121.378C31.9719 121.379 31.9719 121.381 31.9719 121.382C31.9719 121.383 31.9719 121.384 31.9719 121.385C31.9719 121.387 31.9719 121.388 31.9719 121.389C31.9719 121.39 31.9719 121.391 31.9719 121.393C31.9719 121.394 31.9719 121.395 31.9719 121.396C31.9719 121.397 31.9719 121.399 31.9719 121.4C31.9719 121.401 31.9719 121.402 31.9719 121.403C31.9719 121.405 31.9719 121.406 31.9719 121.407C31.9719 121.408 31.9719 121.409 31.9719 121.411C31.9719 121.412 31.9719 121.413 31.9719 121.414C31.9719 121.415 31.9719 121.417 31.9719 121.418C31.9719 121.419 31.9719 121.42 31.9719 121.421C31.9719 121.423 31.9719 121.424 31.9719 121.425C31.9719 121.426 31.9719 121.427 31.9719 121.428C31.9719 121.43 31.9719 121.431 31.9719 121.432C31.9719 121.433 31.9719 121.434 31.9719 121.436C31.9719 121.437 31.9719 121.438 31.9719 121.439C31.9719 121.44 31.9719 121.442 31.9719 121.443C31.9719 121.444 31.9719 121.445 31.9719 121.446C31.9719 121.448 31.9719 121.449 31.9719 121.45C31.9719 121.451 31.9719 121.452 31.9719 121.454C31.9719 121.455 31.9719 121.456 31.9719 121.457C31.9719 121.458 31.9719 121.46 31.9719 121.461C31.9719 121.462 31.9719 121.463 31.9719 121.464C31.9719 121.466 31.9719 121.467 31.9719 121.468C31.9719 121.469 31.9719 121.47 31.9719 121.472C31.9719 121.473 31.9719 121.474 31.9719 121.475C31.9719 121.477 31.9719 121.478 31.9719 121.479C31.9719 121.48 31.9719 121.481 31.9719 121.483C31.9719 121.484 31.9719 121.485 31.9719 121.486C31.9719 121.487 31.9719 121.489 31.9719 121.49C31.9719 121.491 31.9719 121.492 31.9719 121.493C31.9719 121.495 31.9719 121.496 31.9719 121.497C31.9719 121.498 31.9719 121.499 31.9719 121.501C31.9719 121.502 31.9719 121.503 31.9719 121.504C31.9719 121.505 31.9719 121.507 31.9719 121.508C31.9719 121.509 31.9719 121.51 31.9719 121.511C31.9719 121.513 31.9719 121.514 31.9719 121.515C31.9719 121.516 31.9719 121.517 31.9719 121.519C31.9719 121.52 31.9719 121.521 31.9719 121.522C31.9719 121.523 31.9719 121.525 31.9719 121.526C31.9719 121.527 31.9719 121.528 31.9719 121.53C31.9719 121.531 31.9719 121.532 31.9719 121.533C31.9719 121.534 31.9719 121.536 31.9719 121.537C31.9719 121.538 31.9719 121.539 31.9719 121.54C31.9719 121.542 31.9719 121.543 31.9719 121.544C31.9719 121.545 31.9719 121.546 31.9719 121.548C31.9719 121.549 31.9719 121.55 31.9719 121.551C31.9719 121.552 31.9719 121.554 31.9719 121.555C31.9719 121.556 31.9719 121.557 31.9719 121.559C31.9719 121.56 31.9719 121.561 31.9719 121.562C31.9719 121.563 31.9719 121.565 31.9719 121.566C31.9719 121.567 31.9719 121.568 31.9719 121.569C31.9719 121.571 31.9719 121.572 31.9719 121.573C31.9719 121.574 31.9719 121.575 31.9719 121.577C31.9719 121.578 31.9719 121.579 31.9719 121.58C31.9719 121.582 31.9719 121.583 31.9719 121.584C31.9719 121.585 31.9719 121.586 31.9719 121.588C31.9719 121.589 31.9719 121.59 31.9719 121.591C31.9719 121.592 31.9719 121.594 31.9719 121.595C31.9719 121.596 31.9719 121.597 31.9719 121.598C31.9719 121.6 31.9719 121.601 31.9719 121.602C31.9719 121.603 31.9719 121.605 31.9719 121.606C31.9719 121.607 31.9719 121.608 31.9719 121.609C31.9719 121.611 31.9719 121.612 31.9719 121.613C31.9719 121.614 31.9719 121.615 31.9719 121.617C31.9719 121.618 31.9719 121.619 31.9719 121.62C31.9719 121.622 31.9719 121.623 31.9719 121.624C31.9719 121.625 31.9719 121.626 31.9719 121.628C31.9719 121.629 31.9719 121.63 31.9719 121.631C31.9719 121.632 31.9719 121.634 31.9719 121.635C31.9719 121.636 31.9719 121.637 31.9719 121.639C31.9719 121.64 31.9719 121.641 31.9719 121.642C31.9719 121.643 31.9719 121.645 31.9719 121.646C31.9719 121.647 31.9719 121.648 31.9719 121.65C31.9719 121.651 31.9719 121.652 31.9719 121.653C31.9719 121.654 31.9719 121.656 31.9719 121.657C31.9719 121.658 31.9719 121.659 31.9719 121.66C31.9719 121.662 31.9719 121.663 31.9719 121.664C31.9719 121.665 31.9719 121.667 31.9719 121.668C31.9719 121.669 31.9719 121.67 31.9719 121.671C31.9719 121.673 31.9719 121.674 31.9719 121.675C31.9719 121.676 31.9719 121.678 31.9719 121.679C31.9719 121.68 31.9719 121.681 31.9719 121.682C31.9719 121.684 31.9719 121.685 31.9719 121.686C31.9719 121.687 31.9719 121.689 31.9719 121.69C31.9719 121.691 31.9719 121.692 31.9719 121.693C31.9719 121.695 31.9719 121.696 31.9719 121.697C31.9719 121.698 31.9719 121.7 31.9719 121.701C31.9719 121.702 31.9719 121.703 31.9719 121.704C31.9719 121.706 31.9719 121.707 31.9719 121.708C31.9719 121.709 31.9719 121.711 31.9719 121.712C31.9719 121.713 31.9719 121.714 31.9719 121.715C31.9719 121.717 31.9719 121.718 31.9719 121.719C31.9719 121.72 31.9719 121.722 31.9719 121.723C31.9719 121.724 31.9719 121.725 31.9719 121.726C31.9719 121.728 31.9719 121.729 31.9719 121.73C31.9719 121.731 31.9719 121.733 31.9719 121.734C31.9719 121.735 31.9719 121.736 31.9719 121.737C31.9719 121.739 31.9719 121.74 31.9719 121.741C31.9719 121.742 31.9719 121.744 31.9719 121.745C31.9719 121.746 31.9719 121.747 31.9719 121.749C31.9719 121.75 31.9719 121.751 31.9719 121.752C31.9719 121.753 31.9719 121.755 31.9719 121.756C31.9719 121.757 31.9719 121.758 31.9719 121.76C31.9719 121.761 31.9719 121.762 31.9719 121.763C31.9719 121.764 31.9719 121.766 31.9719 121.767C31.9719 121.768 31.9719 121.769 31.9719 121.771C31.9719 121.772 31.9719 121.773 31.9719 121.774C31.9719 121.776 31.9719 121.777 31.9719 121.778C31.9719 121.779 31.9719 121.78 31.9719 121.782C31.9719 121.783 31.9719 121.784 31.9719 121.785C31.9719 121.787 31.9719 121.788 31.9719 121.789C31.9719 121.79 31.9719 121.792 31.9719 121.793C31.9719 121.794 31.9719 121.795 31.9719 121.796C31.9719 121.798 31.9719 121.799 31.9719 121.8C31.9719 121.801 31.9719 121.803 31.9719 121.804C31.9719 121.805 31.9719 121.806 31.9719 121.808C31.9719 121.809 31.9719 121.81 31.9719 121.811C31.9719 121.812 31.9719 121.814 31.9719 121.815C31.9719 121.816 31.9719 121.817 31.9719 121.819C31.9719 121.82 31.9719 121.821 31.9719 121.822C31.9719 121.824 31.9719 121.825 31.9719 121.826C31.9719 121.827 31.9719 121.828 31.9719 121.83C31.9719 121.831 31.9719 121.832 31.9719 121.833C31.9719 121.835 31.9719 121.836 31.9719 121.837C31.9719 121.838 31.9719 121.84 31.9719 121.841C31.9719 121.842 31.9719 121.843 31.9719 121.845C31.9719 121.846 31.9719 121.847 31.9719 121.848C31.9719 121.849 31.9719 121.851 31.9719 121.852C31.9719 121.853 31.9719 121.854 31.9719 121.856C31.9719 121.857 31.9719 121.858 31.9719 121.859C31.9719 121.861 31.9719 121.862 31.9719 121.863C31.9719 121.864 31.9719 121.866 31.9719 121.867C31.9719 121.868 31.9719 121.869 31.9719 121.87C31.9719 121.872 31.9719 121.873 31.9719 121.874C31.9719 121.875 31.9719 121.877 31.9719 121.878C31.9719 121.879 31.9719 121.88 31.9719 121.882C31.9719 121.883 31.9719 121.884 31.9719 121.885C31.9719 121.887 31.9719 121.888 31.9719 121.889C31.9719 121.89 31.9719 121.892 31.9719 121.893C31.9719 121.894 31.9719 121.895 31.9719 121.896C31.9719 121.898 31.9719 121.899 31.9719 121.9C31.9719 121.901 31.9719 121.903 31.9719 121.904C31.9719 121.905 31.9719 121.906 31.9719 121.908C31.9719 121.909 31.9719 121.91 31.9719 121.911C31.9719 121.913 31.9719 121.914 31.9719 121.915C31.9719 121.916 31.9719 121.918 31.9719 121.919C31.9719 121.92 31.9719 121.921 31.9719 121.923C31.9719 121.924 31.9719 121.925 31.9719 121.926C31.9719 121.928 31.9719 121.929 31.9719 121.93C31.9719 121.931 31.9719 121.932 31.9719 121.934C31.9719 121.935 31.9719 121.936 31.9719 121.937C31.9719 121.939 31.9719 121.94 31.9719 121.941C31.9719 121.942 31.9719 121.944 31.9719 121.945C31.9719 121.946 31.9719 121.947 31.9719 121.949C31.9719 121.95 31.9719 121.951 31.9719 121.952C31.9719 121.954 31.9719 121.955 31.9719 121.956C31.9719 121.957 31.9719 121.959 31.9719 121.96C31.9719 121.961 31.9719 121.962 31.9719 121.964C31.9719 121.965 31.9719 121.966 31.9719 121.967C31.9719 121.969 31.9719 121.97 31.9719 121.971C31.9719 121.972 31.9719 121.974 31.9719 121.975C31.9719 121.976 31.9719 121.977 31.9719 121.979C31.9719 121.98 31.9719 121.981 31.9719 121.982C31.9719 121.984 31.9719 121.985 31.9719 121.986C31.9719 121.987 31.9719 121.989 31.9719 121.99C31.9719 121.991 31.9719 121.992 31.9719 121.994C31.9719 121.995 31.9719 121.996 31.9719 121.997C31.9719 121.999 31.9719 122 31.9719 122.001C31.9719 122.002 31.9719 122.004 31.9719 122.005C31.9719 122.006 31.9719 122.007 31.9719 122.009C31.9719 122.01 31.9719 122.011 31.9719 122.012C31.9719 122.013 31.9719 122.015 31.9719 122.016C31.9719 122.017 31.9719 122.018 31.9719 122.02C31.9719 122.021 31.9719 122.022 31.9719 122.024C31.9719 122.025 31.9719 122.026 31.9719 122.027C31.9719 122.029 31.9719 122.03 31.9719 122.031C31.9719 122.032 31.9719 122.034 31.9719 122.035C31.9719 122.036 31.9719 122.037 31.9719 122.039C31.9719 122.04 31.9719 122.041 31.9719 122.042C31.9719 122.044 31.9719 122.045 31.9719 122.046C31.9719 122.047 31.9719 122.049 31.9719 122.05C31.9719 122.051 31.9719 122.052 31.9719 122.054C31.9719 122.055 31.9719 122.056 31.9719 122.057C31.9719 122.059 31.9719 122.06 31.9719 122.061C31.9719 122.062 31.9719 122.064 31.9719 122.065C31.9719 122.066 31.9719 122.067 31.9719 122.069C31.9719 122.07 31.9719 122.071 31.9719 122.072C31.9719 122.074 31.9719 122.075 31.9719 122.076C31.9719 122.077 31.9719 122.079 31.9719 122.08C31.9719 122.081 31.9719 122.082 31.9719 122.084C31.9719 122.085 31.9719 122.086 31.9719 122.087C31.9719 122.089 31.9719 122.09 31.9719 122.091C31.9719 122.092 31.9719 122.094 31.9719 122.095C31.9719 122.096 31.9719 122.097 31.9719 122.099C31.9719 122.1 31.9719 122.101 31.9719 122.103C31.9719 122.104 31.9719 122.105 31.9719 122.106C31.9719 122.108 31.9719 122.109 31.9719 122.11C31.9719 122.111 31.9719 122.113 31.9719 122.114C31.9719 122.115 31.9719 122.116 31.9719 122.118C31.9719 122.119 31.9719 122.12 31.9719 122.121C31.9719 122.123 31.9719 122.124 31.9719 122.125C31.9719 122.126 31.9719 122.128 31.9719 122.129C31.9719 122.13 31.9719 122.131 31.9719 122.133C31.9719 122.134 31.9719 122.135 31.9719 122.136C31.9719 122.138 31.9719 122.139 31.9719 122.14C31.9719 122.142 31.9719 122.143 31.9719 122.144C31.9719 122.145 31.9719 122.147 31.9719 122.148C31.9719 122.149 31.9719 122.15 31.9719 122.152C31.9719 122.153 31.9719 122.154 31.9719 122.155C31.9719 122.157 31.9719 122.158 31.9719 122.159C31.9719 122.16 31.9719 122.162 31.9719 122.163C31.9719 122.164 31.9719 122.166 31.9719 122.167C31.9719 122.168 31.9719 122.169 31.9719 122.171C31.9719 122.172 31.9719 122.173 31.9719 122.174C31.9719 122.176 31.9719 122.177 31.9719 122.178C31.9719 122.179 31.9719 122.181 31.9719 122.182C31.9719 122.183 31.9719 122.184 31.9719 122.186C31.9719 122.187 31.9719 122.188 31.9719 122.19C31.9719 122.191 31.9719 122.192 31.9719 122.193C31.9719 122.195 31.9719 122.196 31.9719 122.197C31.9719 122.198 31.9719 122.2 31.9719 122.201C31.9719 122.202 31.9719 122.203 31.9719 122.205C31.9719 122.206 31.9719 122.207 31.9719 122.209C31.9719 122.21 31.9719 122.211 31.9719 122.212C31.9719 122.214 31.9719 122.215 31.9719 122.216C31.9719 122.217 31.9719 122.219 31.9719 122.22C31.9719 122.221 31.9719 122.222 31.9719 122.224C31.9719 122.225 31.9719 122.226 31.9719 122.228C31.9719 122.229 31.9719 122.23 31.9719 122.231C31.9719 122.233 31.9719 122.234 31.9719 122.235C31.9719 122.236 31.9719 122.238 31.9719 122.239C31.9719 122.24 31.9719 122.241 31.9719 122.243C31.9719 122.244 31.9719 122.245 31.9719 122.247C31.9719 122.248 31.9719 122.249 31.9719 122.25C31.9719 122.252 31.9719 122.253 31.9719 122.254C31.9719 122.255 31.9719 122.257 31.9719 122.258C31.9719 122.259 31.9719 122.261 31.9719 122.262C31.9719 122.263 31.9719 122.264 31.9719 122.266C31.9719 122.267 31.9719 122.268 31.9719 122.269C31.9719 122.271 31.9719 122.272 31.9719 122.273C31.9719 122.275 31.9719 122.276 31.9719 122.277C31.9719 122.278 31.9719 122.28 31.9719 122.281C31.9719 122.282 31.9719 122.283 31.9719 122.285C31.9719 122.286 31.9719 122.287 31.9719 122.289C31.9719 122.29 31.9719 122.291 31.9719 122.292C31.9719 122.294 31.9719 122.295 31.9719 122.296C31.9719 122.297 31.9719 122.299 31.9719 122.3C31.9719 122.301 31.9719 122.303 31.9719 122.304C31.9719 122.305 31.9719 122.306 31.9719 122.308C31.9719 122.309 31.9719 122.31 31.9719 122.311C31.9719 122.313 31.9719 122.314 31.9719 122.315C31.9719 122.317 31.9719 122.318 31.9719 122.319C31.9719 122.32 31.9719 122.322 31.9719 122.323C31.9719 122.324 31.9719 122.326 31.9719 122.327C31.9719 122.328 31.9719 122.329 31.9719 122.331C31.9719 122.332 31.9719 122.333 31.9719 122.334C31.9719 122.336 31.9719 122.337 31.9719 122.338C31.9719 122.34 31.9719 122.341 31.9719 122.342C31.9719 122.343 31.9719 122.345 31.9719 122.346C31.9719 122.347 31.9719 122.349 31.9719 122.35C31.9719 122.351 31.9719 122.352 31.9719 122.354C31.9719 122.355 31.9719 122.356 31.9719 122.357C31.9719 122.359 31.9719 122.36 31.9719 122.361C31.9719 122.363 31.9719 122.364 31.9719 122.365C31.9719 122.366 31.9719 122.368 31.9719 122.369C31.9719 122.37 31.9719 122.372 31.9719 122.373C31.9719 122.374 31.9719 122.375 31.9719 122.377C31.9719 122.378 31.9719 122.379 31.9719 122.38C31.9719 122.382 31.9719 122.383 31.9719 122.384C31.9719 122.386 31.9719 122.387 31.9719 122.388C31.9719 122.389 31.9719 122.391 31.9719 122.392C31.9719 122.393 31.9719 122.395 31.9719 122.396C31.9719 122.397 31.9719 122.398 31.9719 122.4C31.9719 122.401 31.9719 122.402 31.9719 122.404C31.9719 122.405 31.9719 122.406 31.9719 122.407C31.9719 122.409 31.9719 122.41 31.9719 122.411C31.9719 122.413 31.9719 122.414 31.9719 122.415C31.9719 122.416 31.9719 122.418 31.9719 122.419C31.9719 122.42 31.9719 122.422 31.9719 122.423C31.9719 122.424 31.9719 122.425 31.9719 122.427C31.9719 122.428 31.9719 122.429 31.9719 122.431C31.9719 122.432 31.9719 122.433 31.9719 122.434C31.9719 122.436 31.9719 122.437 31.9719 122.438C31.9719 122.44 31.9719 122.441 31.9719 122.442C31.9719 122.443 31.9719 122.445 31.9719 122.446C31.9719 122.447 31.9719 122.449 31.9719 122.45C31.9719 122.451 31.9719 122.452 31.9719 122.454C31.9719 122.455 31.9719 122.456 31.9719 122.458C31.9719 122.459 31.9719 122.46 31.9719 122.461C31.9719 122.463 31.9719 122.464 31.9719 122.465C31.9719 122.467 31.9719 122.468 31.9719 122.469C31.9719 122.47 31.9719 122.472 31.9719 122.473C31.9719 122.474 31.9719 122.476 31.9719 122.477C31.9719 122.478 31.9719 122.479 31.9719 122.481C31.9719 122.482 31.9719 122.483 31.9719 122.485C31.9719 122.486 31.9719 122.487 31.9719 122.489C31.9719 122.49 31.9719 122.491 31.9719 122.492C31.9719 122.494 31.9719 122.495 31.9719 122.496C31.9719 122.498 31.9719 122.499 31.9719 122.5C31.9719 122.501 31.9719 122.503 31.9719 122.504C31.9719 122.505 31.9719 122.507 31.9719 122.508C31.9719 122.509 31.9719 122.51 31.9719 122.512C31.9719 122.513 31.9719 122.514 31.9719 122.516C31.9719 122.517 31.9719 122.518 31.9719 122.52C31.9719 122.521 31.9719 122.522 31.9719 122.523C31.9719 122.525 31.9719 122.526 31.9719 122.527C31.9719 122.529 31.9719 122.53 31.9719 122.531C31.9719 122.532 31.9719 122.534 31.9719 122.535C31.9719 122.536 31.9719 122.538 31.9719 122.539C31.9719 122.54 31.9719 122.542 31.9719 122.543C31.9719 122.544 31.9719 122.545 31.9719 122.547C31.9719 122.548 31.9719 122.549 31.9719 122.551C31.9719 122.552 31.9719 122.553 31.9719 122.554C31.9719 122.556 31.9719 122.557 31.9719 122.558C31.9719 122.56 31.9719 122.561 31.9719 122.562C31.9719 122.564 31.9719 122.565 31.9719 122.566C31.9719 122.567 31.9719 122.569 31.9719 122.57C31.9719 122.571 31.9719 122.573 31.9719 122.574C31.9719 122.575 31.9719 122.577 31.9719 122.578C31.9719 122.579 31.9719 122.58 31.9719 122.582C31.9719 122.583 31.9719 122.584 31.9719 122.586C31.9719 122.587 31.9719 122.588 31.9719 122.589C31.9719 122.591 31.9719 122.592 31.9719 122.593C31.9719 122.595 31.9719 122.596 31.9719 122.597C31.9719 122.599 31.9719 122.6 31.9719 122.601C31.9719 122.602 31.9719 122.604 31.9719 122.605C31.9719 122.606 31.9719 122.608 31.9719 122.609C31.9719 122.61 31.9719 122.612 31.9719 122.613C31.9719 122.614 31.9719 122.615 31.9719 122.617C31.9719 122.618 31.9719 122.619 31.9719 122.621C31.9719 122.622 31.9719 122.623 31.9719 122.625C31.9719 122.626 31.9719 122.627 31.9719 122.628C31.9719 122.63 31.9719 122.631 31.9719 122.632C31.9719 122.634 31.9719 122.635 31.9719 122.636C31.9719 122.638 31.9719 122.639 31.9719 122.64C31.9719 122.642 31.9719 122.643 31.9719 122.644C31.9719 122.645 31.9719 122.647 31.9719 122.648C31.9719 122.649 31.9719 122.651 31.9719 122.652C31.9719 122.653 31.9719 122.655 31.9719 122.656C31.9719 122.657 31.9719 122.658 31.9719 122.66C31.9719 122.661 31.9719 122.662 31.9719 122.664C31.9719 122.665 31.9719 122.666 31.9719 122.668C31.9719 122.669 31.9719 122.67 31.9719 122.672C31.9719 122.673 31.9719 122.674 31.9719 122.675C31.9719 122.677 31.9719 122.678 31.9719 122.679C31.9719 122.681 31.9719 122.682 31.9719 122.683C31.9719 122.685 31.9719 122.686 31.9719 122.687C31.9719 122.689 31.9719 122.69 31.9719 122.691C31.9719 122.692 31.9719 122.694 31.9719 122.695C31.9719 122.696 31.9719 122.698 31.9719 122.699C31.9719 122.7 31.9719 122.702 31.9719 122.703C31.9719 122.704 31.9719 122.706 31.9719 122.707C31.9719 122.708 31.9719 122.709 31.9719 122.711C31.9719 122.712 31.9719 122.713 31.9719 122.715C31.9719 122.716 31.9719 122.717 31.9719 122.719C31.9719 122.72 31.9719 122.721 31.9719 122.723C31.9719 122.724 31.9719 122.725 31.9719 122.726C31.9719 122.728 31.9719 122.729 31.9719 122.73C31.9719 122.732 31.9719 122.733 31.9719 122.734C31.9719 122.736 31.9719 122.737 31.9719 122.738C31.9719 122.74 31.9719 122.741 31.9719 122.742C31.9719 122.744 31.9719 122.745 31.9719 122.746C31.9719 122.747 31.9719 122.749 31.9719 122.75C31.9719 122.751 31.9719 122.753 31.9719 122.754C31.9719 122.755 31.9719 122.757 31.9719 122.758C31.9719 122.759 31.9719 122.761 31.9719 122.762C31.9719 122.763 31.9719 122.765 31.9719 122.766C31.9719 122.767 31.9719 122.768 31.9719 122.77C31.9719 122.771 31.9719 122.772 31.9719 122.774C31.9719 122.775 31.9719 122.776 31.9719 122.778C31.9719 122.779 31.9719 122.78 31.9719 122.782C31.9719 122.783 31.9719 122.784 31.9719 122.786C31.9719 122.787 31.9719 122.788 31.9719 122.789C31.9719 122.791 31.9719 122.792 31.9719 122.793C31.9719 122.795 31.9719 122.796 31.9719 122.797C31.9719 122.799 31.9719 122.8 31.9719 122.801C31.9719 122.803 31.9719 122.804 31.9719 122.805C31.9719 122.807 31.9719 122.808 31.9719 122.809C31.9719 122.811 31.9719 122.812 31.9719 122.813C31.9719 122.814 31.9719 122.816 31.9719 122.817C31.9719 122.818 31.9719 122.82 31.9719 122.821C31.9719 122.822 31.9719 122.824 31.9719 122.825C31.9719 122.826 31.9719 122.828 31.9719 122.829C31.9719 122.83 31.9719 122.832 31.9719 122.833C31.9719 122.834 31.9719 122.836 31.9719 122.837C31.9719 122.838 31.9719 122.84 31.9719 122.841C31.9719 122.842 31.9719 122.844 31.9719 122.845C31.9719 122.846 31.9719 122.847 31.9719 122.849C31.9719 122.85 31.9719 122.851 31.9719 122.853C31.9719 122.854 31.9719 122.855 31.9719 122.857C31.9719 122.858 31.9719 122.859 31.9719 122.861C31.9719 122.862 31.9719 122.863 31.9719 122.865C31.9719 122.866 31.9719 122.867 31.9719 122.869C31.9719 122.87 31.9719 122.871 31.9719 122.873C31.9719 122.874 31.9719 122.875 31.9719 122.877C31.9719 122.878 31.9719 122.879 31.9719 122.88C31.9719 122.882 31.9719 122.883 31.9719 122.884C31.9719 122.886 31.9719 122.887 31.9719 122.888C31.9719 122.89 31.9719 122.891 31.9719 122.892C31.9719 122.894 31.9719 122.895 31.9719 122.896C31.9719 122.898 31.9719 122.899 31.9719 122.9C31.9719 122.902 31.9719 122.903 31.9719 122.904C31.9719 122.906 31.9719 122.907 31.9719 122.908C31.9719 122.91 31.9719 122.911 31.9719 122.912C31.9719 122.914 31.9719 122.915 31.9719 122.916C31.9719 122.918 31.9719 122.919 31.9719 122.92C31.9719 122.922 31.9719 122.923 31.9719 122.924C31.9719 122.926 31.9719 122.927 31.9719 122.928C31.9719 122.93 31.9719 122.931 31.9719 122.932C31.9719 122.934 31.9719 122.935 31.9719 122.936C31.9719 122.937 31.9719 122.939 31.9719 122.94C31.9719 122.941 31.9719 122.943 31.9719 122.944C31.9719 122.945 31.9719 122.947 31.9719 122.948C31.9719 122.949 31.9719 122.951 31.9719 122.952C31.9719 122.953 31.9719 122.955 31.9719 122.956C31.9719 122.957 31.9719 122.959 31.9719 122.96C31.9719 122.961 31.9719 122.963 31.9719 122.964C31.9719 122.965 31.9719 122.967 31.9719 122.968C31.9719 122.969 31.9719 122.971 31.9719 122.972C31.9719 122.973 31.9719 122.975 31.9719 122.976C31.9719 122.977 31.9719 122.979 31.9719 122.98C31.9719 122.981 31.9719 122.983 31.9719 122.984C31.9719 122.985 31.9719 122.987 31.9719 122.988C31.9719 122.989 31.9719 122.991 31.9719 122.992C31.9719 122.993 31.9719 122.995 31.9719 122.996C31.9719 122.997 31.9719 122.999 31.9719 123C31.9719 123.001 31.9719 123.003 31.9719 123.004C31.9719 123.005 31.9719 123.007 31.9719 123.008H35.9719C35.9719 123.007 35.9719 123.005 35.9719 123.004C35.9719 123.003 35.9719 123.001 35.9719 123C35.9719 122.999 35.9719 122.997 35.9719 122.996C35.9719 122.995 35.9719 122.993 35.9719 122.992C35.9719 122.991 35.9719 122.989 35.9719 122.988C35.9719 122.987 35.9719 122.985 35.9719 122.984C35.9719 122.983 35.9719 122.981 35.9719 122.98C35.9719 122.979 35.9719 122.977 35.9719 122.976C35.9719 122.975 35.9719 122.973 35.9719 122.972C35.9719 122.971 35.9719 122.969 35.9719 122.968C35.9719 122.967 35.9719 122.965 35.9719 122.964C35.9719 122.963 35.9719 122.961 35.9719 122.96C35.9719 122.959 35.9719 122.957 35.9719 122.956C35.9719 122.955 35.9719 122.953 35.9719 122.952C35.9719 122.951 35.9719 122.949 35.9719 122.948C35.9719 122.947 35.9719 122.945 35.9719 122.944C35.9719 122.943 35.9719 122.941 35.9719 122.94C35.9719 122.939 35.9719 122.937 35.9719 122.936C35.9719 122.935 35.9719 122.934 35.9719 122.932C35.9719 122.931 35.9719 122.93 35.9719 122.928C35.9719 122.927 35.9719 122.926 35.9719 122.924C35.9719 122.923 35.9719 122.922 35.9719 122.92C35.9719 122.919 35.9719 122.918 35.9719 122.916C35.9719 122.915 35.9719 122.914 35.9719 122.912C35.9719 122.911 35.9719 122.91 35.9719 122.908C35.9719 122.907 35.9719 122.906 35.9719 122.904C35.9719 122.903 35.9719 122.902 35.9719 122.9C35.9719 122.899 35.9719 122.898 35.9719 122.896C35.9719 122.895 35.9719 122.894 35.9719 122.892C35.9719 122.891 35.9719 122.89 35.9719 122.888C35.9719 122.887 35.9719 122.886 35.9719 122.884C35.9719 122.883 35.9719 122.882 35.9719 122.88C35.9719 122.879 35.9719 122.878 35.9719 122.877C35.9719 122.875 35.9719 122.874 35.9719 122.873C35.9719 122.871 35.9719 122.87 35.9719 122.869C35.9719 122.867 35.9719 122.866 35.9719 122.865C35.9719 122.863 35.9719 122.862 35.9719 122.861C35.9719 122.859 35.9719 122.858 35.9719 122.857C35.9719 122.855 35.9719 122.854 35.9719 122.853C35.9719 122.851 35.9719 122.85 35.9719 122.849C35.9719 122.847 35.9719 122.846 35.9719 122.845C35.9719 122.844 35.9719 122.842 35.9719 122.841C35.9719 122.84 35.9719 122.838 35.9719 122.837C35.9719 122.836 35.9719 122.834 35.9719 122.833C35.9719 122.832 35.9719 122.83 35.9719 122.829C35.9719 122.828 35.9719 122.826 35.9719 122.825C35.9719 122.824 35.9719 122.822 35.9719 122.821C35.9719 122.82 35.9719 122.818 35.9719 122.817C35.9719 122.816 35.9719 122.814 35.9719 122.813C35.9719 122.812 35.9719 122.811 35.9719 122.809C35.9719 122.808 35.9719 122.807 35.9719 122.805C35.9719 122.804 35.9719 122.803 35.9719 122.801C35.9719 122.8 35.9719 122.799 35.9719 122.797C35.9719 122.796 35.9719 122.795 35.9719 122.793C35.9719 122.792 35.9719 122.791 35.9719 122.789C35.9719 122.788 35.9719 122.787 35.9719 122.786C35.9719 122.784 35.9719 122.783 35.9719 122.782C35.9719 122.78 35.9719 122.779 35.9719 122.778C35.9719 122.776 35.9719 122.775 35.9719 122.774C35.9719 122.772 35.9719 122.771 35.9719 122.77C35.9719 122.768 35.9719 122.767 35.9719 122.766C35.9719 122.765 35.9719 122.763 35.9719 122.762C35.9719 122.761 35.9719 122.759 35.9719 122.758C35.9719 122.757 35.9719 122.755 35.9719 122.754C35.9719 122.753 35.9719 122.751 35.9719 122.75C35.9719 122.749 35.9719 122.747 35.9719 122.746C35.9719 122.745 35.9719 122.744 35.9719 122.742C35.9719 122.741 35.9719 122.74 35.9719 122.738C35.9719 122.737 35.9719 122.736 35.9719 122.734C35.9719 122.733 35.9719 122.732 35.9719 122.73C35.9719 122.729 35.9719 122.728 35.9719 122.726C35.9719 122.725 35.9719 122.724 35.9719 122.723C35.9719 122.721 35.9719 122.72 35.9719 122.719C35.9719 122.717 35.9719 122.716 35.9719 122.715C35.9719 122.713 35.9719 122.712 35.9719 122.711C35.9719 122.709 35.9719 122.708 35.9719 122.707C35.9719 122.706 35.9719 122.704 35.9719 122.703C35.9719 122.702 35.9719 122.7 35.9719 122.699C35.9719 122.698 35.9719 122.696 35.9719 122.695C35.9719 122.694 35.9719 122.692 35.9719 122.691C35.9719 122.69 35.9719 122.689 35.9719 122.687C35.9719 122.686 35.9719 122.685 35.9719 122.683C35.9719 122.682 35.9719 122.681 35.9719 122.679C35.9719 122.678 35.9719 122.677 35.9719 122.675C35.9719 122.674 35.9719 122.673 35.9719 122.672C35.9719 122.67 35.9719 122.669 35.9719 122.668C35.9719 122.666 35.9719 122.665 35.9719 122.664C35.9719 122.662 35.9719 122.661 35.9719 122.66C35.9719 122.658 35.9719 122.657 35.9719 122.656C35.9719 122.655 35.9719 122.653 35.9719 122.652C35.9719 122.651 35.9719 122.649 35.9719 122.648C35.9719 122.647 35.9719 122.645 35.9719 122.644C35.9719 122.643 35.9719 122.642 35.9719 122.64C35.9719 122.639 35.9719 122.638 35.9719 122.636C35.9719 122.635 35.9719 122.634 35.9719 122.632C35.9719 122.631 35.9719 122.63 35.9719 122.628C35.9719 122.627 35.9719 122.626 35.9719 122.625C35.9719 122.623 35.9719 122.622 35.9719 122.621C35.9719 122.619 35.9719 122.618 35.9719 122.617C35.9719 122.615 35.9719 122.614 35.9719 122.613C35.9719 122.612 35.9719 122.61 35.9719 122.609C35.9719 122.608 35.9719 122.606 35.9719 122.605C35.9719 122.604 35.9719 122.602 35.9719 122.601C35.9719 122.6 35.9719 122.599 35.9719 122.597C35.9719 122.596 35.9719 122.595 35.9719 122.593C35.9719 122.592 35.9719 122.591 35.9719 122.589C35.9719 122.588 35.9719 122.587 35.9719 122.586C35.9719 122.584 35.9719 122.583 35.9719 122.582C35.9719 122.58 35.9719 122.579 35.9719 122.578C35.9719 122.577 35.9719 122.575 35.9719 122.574C35.9719 122.573 35.9719 122.571 35.9719 122.57C35.9719 122.569 35.9719 122.567 35.9719 122.566C35.9719 122.565 35.9719 122.564 35.9719 122.562C35.9719 122.561 35.9719 122.56 35.9719 122.558C35.9719 122.557 35.9719 122.556 35.9719 122.554C35.9719 122.553 35.9719 122.552 35.9719 122.551C35.9719 122.549 35.9719 122.548 35.9719 122.547C35.9719 122.545 35.9719 122.544 35.9719 122.543C35.9719 122.542 35.9719 122.54 35.9719 122.539C35.9719 122.538 35.9719 122.536 35.9719 122.535C35.9719 122.534 35.9719 122.532 35.9719 122.531C35.9719 122.53 35.9719 122.529 35.9719 122.527C35.9719 122.526 35.9719 122.525 35.9719 122.523C35.9719 122.522 35.9719 122.521 35.9719 122.52C35.9719 122.518 35.9719 122.517 35.9719 122.516C35.9719 122.514 35.9719 122.513 35.9719 122.512C35.9719 122.51 35.9719 122.509 35.9719 122.508C35.9719 122.507 35.9719 122.505 35.9719 122.504C35.9719 122.503 35.9719 122.501 35.9719 122.5C35.9719 122.499 35.9719 122.498 35.9719 122.496C35.9719 122.495 35.9719 122.494 35.9719 122.492C35.9719 122.491 35.9719 122.49 35.9719 122.489C35.9719 122.487 35.9719 122.486 35.9719 122.485C35.9719 122.483 35.9719 122.482 35.9719 122.481C35.9719 122.479 35.9719 122.478 35.9719 122.477C35.9719 122.476 35.9719 122.474 35.9719 122.473C35.9719 122.472 35.9719 122.47 35.9719 122.469C35.9719 122.468 35.9719 122.467 35.9719 122.465C35.9719 122.464 35.9719 122.463 35.9719 122.461C35.9719 122.46 35.9719 122.459 35.9719 122.458C35.9719 122.456 35.9719 122.455 35.9719 122.454C35.9719 122.452 35.9719 122.451 35.9719 122.45C35.9719 122.449 35.9719 122.447 35.9719 122.446C35.9719 122.445 35.9719 122.443 35.9719 122.442C35.9719 122.441 35.9719 122.44 35.9719 122.438C35.9719 122.437 35.9719 122.436 35.9719 122.434C35.9719 122.433 35.9719 122.432 35.9719 122.431C35.9719 122.429 35.9719 122.428 35.9719 122.427C35.9719 122.425 35.9719 122.424 35.9719 122.423C35.9719 122.422 35.9719 122.42 35.9719 122.419C35.9719 122.418 35.9719 122.416 35.9719 122.415C35.9719 122.414 35.9719 122.413 35.9719 122.411C35.9719 122.41 35.9719 122.409 35.9719 122.407C35.9719 122.406 35.9719 122.405 35.9719 122.404C35.9719 122.402 35.9719 122.401 35.9719 122.4C35.9719 122.398 35.9719 122.397 35.9719 122.396C35.9719 122.395 35.9719 122.393 35.9719 122.392C35.9719 122.391 35.9719 122.389 35.9719 122.388C35.9719 122.387 35.9719 122.386 35.9719 122.384C35.9719 122.383 35.9719 122.382 35.9719 122.38C35.9719 122.379 35.9719 122.378 35.9719 122.377C35.9719 122.375 35.9719 122.374 35.9719 122.373C35.9719 122.372 35.9719 122.37 35.9719 122.369C35.9719 122.368 35.9719 122.366 35.9719 122.365C35.9719 122.364 35.9719 122.363 35.9719 122.361C35.9719 122.36 35.9719 122.359 35.9719 122.357C35.9719 122.356 35.9719 122.355 35.9719 122.354C35.9719 122.352 35.9719 122.351 35.9719 122.35C35.9719 122.349 35.9719 122.347 35.9719 122.346C35.9719 122.345 35.9719 122.343 35.9719 122.342C35.9719 122.341 35.9719 122.34 35.9719 122.338C35.9719 122.337 35.9719 122.336 35.9719 122.334C35.9719 122.333 35.9719 122.332 35.9719 122.331C35.9719 122.329 35.9719 122.328 35.9719 122.327C35.9719 122.326 35.9719 122.324 35.9719 122.323C35.9719 122.322 35.9719 122.32 35.9719 122.319C35.9719 122.318 35.9719 122.317 35.9719 122.315C35.9719 122.314 35.9719 122.313 35.9719 122.311C35.9719 122.31 35.9719 122.309 35.9719 122.308C35.9719 122.306 35.9719 122.305 35.9719 122.304C35.9719 122.303 35.9719 122.301 35.9719 122.3C35.9719 122.299 35.9719 122.297 35.9719 122.296C35.9719 122.295 35.9719 122.294 35.9719 122.292C35.9719 122.291 35.9719 122.29 35.9719 122.289C35.9719 122.287 35.9719 122.286 35.9719 122.285C35.9719 122.283 35.9719 122.282 35.9719 122.281C35.9719 122.28 35.9719 122.278 35.9719 122.277C35.9719 122.276 35.9719 122.275 35.9719 122.273C35.9719 122.272 35.9719 122.271 35.9719 122.269C35.9719 122.268 35.9719 122.267 35.9719 122.266C35.9719 122.264 35.9719 122.263 35.9719 122.262C35.9719 122.261 35.9719 122.259 35.9719 122.258C35.9719 122.257 35.9719 122.255 35.9719 122.254C35.9719 122.253 35.9719 122.252 35.9719 122.25C35.9719 122.249 35.9719 122.248 35.9719 122.247C35.9719 122.245 35.9719 122.244 35.9719 122.243C35.9719 122.241 35.9719 122.24 35.9719 122.239C35.9719 122.238 35.9719 122.236 35.9719 122.235C35.9719 122.234 35.9719 122.233 35.9719 122.231C35.9719 122.23 35.9719 122.229 35.9719 122.228C35.9719 122.226 35.9719 122.225 35.9719 122.224C35.9719 122.222 35.9719 122.221 35.9719 122.22C35.9719 122.219 35.9719 122.217 35.9719 122.216C35.9719 122.215 35.9719 122.214 35.9719 122.212C35.9719 122.211 35.9719 122.21 35.9719 122.209C35.9719 122.207 35.9719 122.206 35.9719 122.205C35.9719 122.203 35.9719 122.202 35.9719 122.201C35.9719 122.2 35.9719 122.198 35.9719 122.197C35.9719 122.196 35.9719 122.195 35.9719 122.193C35.9719 122.192 35.9719 122.191 35.9719 122.19C35.9719 122.188 35.9719 122.187 35.9719 122.186C35.9719 122.184 35.9719 122.183 35.9719 122.182C35.9719 122.181 35.9719 122.179 35.9719 122.178C35.9719 122.177 35.9719 122.176 35.9719 122.174C35.9719 122.173 35.9719 122.172 35.9719 122.171C35.9719 122.169 35.9719 122.168 35.9719 122.167C35.9719 122.166 35.9719 122.164 35.9719 122.163C35.9719 122.162 35.9719 122.16 35.9719 122.159C35.9719 122.158 35.9719 122.157 35.9719 122.155C35.9719 122.154 35.9719 122.153 35.9719 122.152C35.9719 122.15 35.9719 122.149 35.9719 122.148C35.9719 122.147 35.9719 122.145 35.9719 122.144C35.9719 122.143 35.9719 122.142 35.9719 122.14C35.9719 122.139 35.9719 122.138 35.9719 122.136C35.9719 122.135 35.9719 122.134 35.9719 122.133C35.9719 122.131 35.9719 122.13 35.9719 122.129C35.9719 122.128 35.9719 122.126 35.9719 122.125C35.9719 122.124 35.9719 122.123 35.9719 122.121C35.9719 122.12 35.9719 122.119 35.9719 122.118C35.9719 122.116 35.9719 122.115 35.9719 122.114C35.9719 122.113 35.9719 122.111 35.9719 122.11C35.9719 122.109 35.9719 122.108 35.9719 122.106C35.9719 122.105 35.9719 122.104 35.9719 122.103C35.9719 122.101 35.9719 122.1 35.9719 122.099C35.9719 122.097 35.9719 122.096 35.9719 122.095C35.9719 122.094 35.9719 122.092 35.9719 122.091C35.9719 122.09 35.9719 122.089 35.9719 122.087C35.9719 122.086 35.9719 122.085 35.9719 122.084C35.9719 122.082 35.9719 122.081 35.9719 122.08C35.9719 122.079 35.9719 122.077 35.9719 122.076C35.9719 122.075 35.9719 122.074 35.9719 122.072C35.9719 122.071 35.9719 122.07 35.9719 122.069C35.9719 122.067 35.9719 122.066 35.9719 122.065C35.9719 122.064 35.9719 122.062 35.9719 122.061C35.9719 122.06 35.9719 122.059 35.9719 122.057C35.9719 122.056 35.9719 122.055 35.9719 122.054C35.9719 122.052 35.9719 122.051 35.9719 122.05C35.9719 122.049 35.9719 122.047 35.9719 122.046C35.9719 122.045 35.9719 122.044 35.9719 122.042C35.9719 122.041 35.9719 122.04 35.9719 122.039C35.9719 122.037 35.9719 122.036 35.9719 122.035C35.9719 122.034 35.9719 122.032 35.9719 122.031C35.9719 122.03 35.9719 122.029 35.9719 122.027C35.9719 122.026 35.9719 122.025 35.9719 122.024C35.9719 122.022 35.9719 122.021 35.9719 122.02C35.9719 122.018 35.9719 122.017 35.9719 122.016C35.9719 122.015 35.9719 122.013 35.9719 122.012C35.9719 122.011 35.9719 122.01 35.9719 122.009C35.9719 122.007 35.9719 122.006 35.9719 122.005C35.9719 122.004 35.9719 122.002 35.9719 122.001C35.9719 122 35.9719 121.999 35.9719 121.997C35.9719 121.996 35.9719 121.995 35.9719 121.994C35.9719 121.992 35.9719 121.991 35.9719 121.99C35.9719 121.989 35.9719 121.987 35.9719 121.986C35.9719 121.985 35.9719 121.984 35.9719 121.982C35.9719 121.981 35.9719 121.98 35.9719 121.979C35.9719 121.977 35.9719 121.976 35.9719 121.975C35.9719 121.974 35.9719 121.972 35.9719 121.971C35.9719 121.97 35.9719 121.969 35.9719 121.967C35.9719 121.966 35.9719 121.965 35.9719 121.964C35.9719 121.962 35.9719 121.961 35.9719 121.96C35.9719 121.959 35.9719 121.957 35.9719 121.956C35.9719 121.955 35.9719 121.954 35.9719 121.952C35.9719 121.951 35.9719 121.95 35.9719 121.949C35.9719 121.947 35.9719 121.946 35.9719 121.945C35.9719 121.944 35.9719 121.942 35.9719 121.941C35.9719 121.94 35.9719 121.939 35.9719 121.937C35.9719 121.936 35.9719 121.935 35.9719 121.934C35.9719 121.932 35.9719 121.931 35.9719 121.93C35.9719 121.929 35.9719 121.928 35.9719 121.926C35.9719 121.925 35.9719 121.924 35.9719 121.923C35.9719 121.921 35.9719 121.92 35.9719 121.919C35.9719 121.918 35.9719 121.916 35.9719 121.915C35.9719 121.914 35.9719 121.913 35.9719 121.911C35.9719 121.91 35.9719 121.909 35.9719 121.908C35.9719 121.906 35.9719 121.905 35.9719 121.904C35.9719 121.903 35.9719 121.901 35.9719 121.9C35.9719 121.899 35.9719 121.898 35.9719 121.896C35.9719 121.895 35.9719 121.894 35.9719 121.893C35.9719 121.892 35.9719 121.89 35.9719 121.889C35.9719 121.888 35.9719 121.887 35.9719 121.885C35.9719 121.884 35.9719 121.883 35.9719 121.882C35.9719 121.88 35.9719 121.879 35.9719 121.878C35.9719 121.877 35.9719 121.875 35.9719 121.874C35.9719 121.873 35.9719 121.872 35.9719 121.87C35.9719 121.869 35.9719 121.868 35.9719 121.867C35.9719 121.866 35.9719 121.864 35.9719 121.863C35.9719 121.862 35.9719 121.861 35.9719 121.859C35.9719 121.858 35.9719 121.857 35.9719 121.856C35.9719 121.854 35.9719 121.853 35.9719 121.852C35.9719 121.851 35.9719 121.849 35.9719 121.848C35.9719 121.847 35.9719 121.846 35.9719 121.845C35.9719 121.843 35.9719 121.842 35.9719 121.841C35.9719 121.84 35.9719 121.838 35.9719 121.837C35.9719 121.836 35.9719 121.835 35.9719 121.833C35.9719 121.832 35.9719 121.831 35.9719 121.83C35.9719 121.828 35.9719 121.827 35.9719 121.826C35.9719 121.825 35.9719 121.824 35.9719 121.822C35.9719 121.821 35.9719 121.82 35.9719 121.819C35.9719 121.817 35.9719 121.816 35.9719 121.815C35.9719 121.814 35.9719 121.812 35.9719 121.811C35.9719 121.81 35.9719 121.809 35.9719 121.808C35.9719 121.806 35.9719 121.805 35.9719 121.804C35.9719 121.803 35.9719 121.801 35.9719 121.8C35.9719 121.799 35.9719 121.798 35.9719 121.796C35.9719 121.795 35.9719 121.794 35.9719 121.793C35.9719 121.792 35.9719 121.79 35.9719 121.789C35.9719 121.788 35.9719 121.787 35.9719 121.785C35.9719 121.784 35.9719 121.783 35.9719 121.782C35.9719 121.78 35.9719 121.779 35.9719 121.778C35.9719 121.777 35.9719 121.776 35.9719 121.774C35.9719 121.773 35.9719 121.772 35.9719 121.771C35.9719 121.769 35.9719 121.768 35.9719 121.767C35.9719 121.766 35.9719 121.764 35.9719 121.763C35.9719 121.762 35.9719 121.761 35.9719 121.76C35.9719 121.758 35.9719 121.757 35.9719 121.756C35.9719 121.755 35.9719 121.753 35.9719 121.752C35.9719 121.751 35.9719 121.75 35.9719 121.749C35.9719 121.747 35.9719 121.746 35.9719 121.745C35.9719 121.744 35.9719 121.742 35.9719 121.741C35.9719 121.74 35.9719 121.739 35.9719 121.737C35.9719 121.736 35.9719 121.735 35.9719 121.734C35.9719 121.733 35.9719 121.731 35.9719 121.73C35.9719 121.729 35.9719 121.728 35.9719 121.726C35.9719 121.725 35.9719 121.724 35.9719 121.723C35.9719 121.722 35.9719 121.72 35.9719 121.719C35.9719 121.718 35.9719 121.717 35.9719 121.715C35.9719 121.714 35.9719 121.713 35.9719 121.712C35.9719 121.711 35.9719 121.709 35.9719 121.708C35.9719 121.707 35.9719 121.706 35.9719 121.704C35.9719 121.703 35.9719 121.702 35.9719 121.701C35.9719 121.7 35.9719 121.698 35.9719 121.697C35.9719 121.696 35.9719 121.695 35.9719 121.693C35.9719 121.692 35.9719 121.691 35.9719 121.69C35.9719 121.689 35.9719 121.687 35.9719 121.686C35.9719 121.685 35.9719 121.684 35.9719 121.682C35.9719 121.681 35.9719 121.68 35.9719 121.679C35.9719 121.678 35.9719 121.676 35.9719 121.675C35.9719 121.674 35.9719 121.673 35.9719 121.671C35.9719 121.67 35.9719 121.669 35.9719 121.668C35.9719 121.667 35.9719 121.665 35.9719 121.664C35.9719 121.663 35.9719 121.662 35.9719 121.66C35.9719 121.659 35.9719 121.658 35.9719 121.657C35.9719 121.656 35.9719 121.654 35.9719 121.653C35.9719 121.652 35.9719 121.651 35.9719 121.65C35.9719 121.648 35.9719 121.647 35.9719 121.646C35.9719 121.645 35.9719 121.643 35.9719 121.642C35.9719 121.641 35.9719 121.64 35.9719 121.639C35.9719 121.637 35.9719 121.636 35.9719 121.635C35.9719 121.634 35.9719 121.632 35.9719 121.631C35.9719 121.63 35.9719 121.629 35.9719 121.628C35.9719 121.626 35.9719 121.625 35.9719 121.624C35.9719 121.623 35.9719 121.622 35.9719 121.62C35.9719 121.619 35.9719 121.618 35.9719 121.617C35.9719 121.615 35.9719 121.614 35.9719 121.613C35.9719 121.612 35.9719 121.611 35.9719 121.609C35.9719 121.608 35.9719 121.607 35.9719 121.606C35.9719 121.605 35.9719 121.603 35.9719 121.602C35.9719 121.601 35.9719 121.6 35.9719 121.598C35.9719 121.597 35.9719 121.596 35.9719 121.595C35.9719 121.594 35.9719 121.592 35.9719 121.591C35.9719 121.59 35.9719 121.589 35.9719 121.588C35.9719 121.586 35.9719 121.585 35.9719 121.584C35.9719 121.583 35.9719 121.582 35.9719 121.58C35.9719 121.579 35.9719 121.578 35.9719 121.577C35.9719 121.575 35.9719 121.574 35.9719 121.573C35.9719 121.572 35.9719 121.571 35.9719 121.569C35.9719 121.568 35.9719 121.567 35.9719 121.566C35.9719 121.565 35.9719 121.563 35.9719 121.562C35.9719 121.561 35.9719 121.56 35.9719 121.559C35.9719 121.557 35.9719 121.556 35.9719 121.555C35.9719 121.554 35.9719 121.552 35.9719 121.551C35.9719 121.55 35.9719 121.549 35.9719 121.548C35.9719 121.546 35.9719 121.545 35.9719 121.544C35.9719 121.543 35.9719 121.542 35.9719 121.54C35.9719 121.539 35.9719 121.538 35.9719 121.537C35.9719 121.536 35.9719 121.534 35.9719 121.533C35.9719 121.532 35.9719 121.531 35.9719 121.53C35.9719 121.528 35.9719 121.527 35.9719 121.526C35.9719 121.525 35.9719 121.523 35.9719 121.522C35.9719 121.521 35.9719 121.52 35.9719 121.519C35.9719 121.517 35.9719 121.516 35.9719 121.515C35.9719 121.514 35.9719 121.513 35.9719 121.511C35.9719 121.51 35.9719 121.509 35.9719 121.508C35.9719 121.507 35.9719 121.505 35.9719 121.504C35.9719 121.503 35.9719 121.502 35.9719 121.501C35.9719 121.499 35.9719 121.498 35.9719 121.497C35.9719 121.496 35.9719 121.495 35.9719 121.493C35.9719 121.492 35.9719 121.491 35.9719 121.49C35.9719 121.489 35.9719 121.487 35.9719 121.486C35.9719 121.485 35.9719 121.484 35.9719 121.483C35.9719 121.481 35.9719 121.48 35.9719 121.479C35.9719 121.478 35.9719 121.477 35.9719 121.475C35.9719 121.474 35.9719 121.473 35.9719 121.472C35.9719 121.47 35.9719 121.469 35.9719 121.468C35.9719 121.467 35.9719 121.466 35.9719 121.464C35.9719 121.463 35.9719 121.462 35.9719 121.461C35.9719 121.46 35.9719 121.458 35.9719 121.457C35.9719 121.456 35.9719 121.455 35.9719 121.454C35.9719 121.452 35.9719 121.451 35.9719 121.45C35.9719 121.449 35.9719 121.448 35.9719 121.446C35.9719 121.445 35.9719 121.444 35.9719 121.443C35.9719 121.442 35.9719 121.44 35.9719 121.439C35.9719 121.438 35.9719 121.437 35.9719 121.436C35.9719 121.434 35.9719 121.433 35.9719 121.432C35.9719 121.431 35.9719 121.43 35.9719 121.428C35.9719 121.427 35.9719 121.426 35.9719 121.425C35.9719 121.424 35.9719 121.423 35.9719 121.421C35.9719 121.42 35.9719 121.419 35.9719 121.418C35.9719 121.417 35.9719 121.415 35.9719 121.414C35.9719 121.413 35.9719 121.412 35.9719 121.411C35.9719 121.409 35.9719 121.408 35.9719 121.407C35.9719 121.406 35.9719 121.405 35.9719 121.403C35.9719 121.402 35.9719 121.401 35.9719 121.4C35.9719 121.399 35.9719 121.397 35.9719 121.396C35.9719 121.395 35.9719 121.394 35.9719 121.393C35.9719 121.391 35.9719 121.39 35.9719 121.389C35.9719 121.388 35.9719 121.387 35.9719 121.385C35.9719 121.384 35.9719 121.383 35.9719 121.382C35.9719 121.381 35.9719 121.379 35.9719 121.378C35.9719 121.377 35.9719 121.376 35.9719 121.375C35.9719 121.374 35.9719 121.372 35.9719 121.371C35.9719 121.37 35.9719 121.369 35.9719 121.368C35.9719 121.366 35.9719 121.365 35.9719 121.364C35.9719 121.363 35.9719 121.362 35.9719 121.36C35.9719 121.359 35.9719 121.358 35.9719 121.357C35.9719 121.356 35.9719 121.354 35.9719 121.353C35.9719 121.352 35.9719 121.351 35.9719 121.35C35.9719 121.348 35.9719 121.347 35.9719 121.346C35.9719 121.345 35.9719 121.344 35.9719 121.343C35.9719 121.341 35.9719 121.34 35.9719 121.339C35.9719 121.338 35.9719 121.337 35.9719 121.335C35.9719 121.334 35.9719 121.333 35.9719 121.332C35.9719 121.331 35.9719 121.329 35.9719 121.328C35.9719 121.327 35.9719 121.326 35.9719 121.325C35.9719 121.324 35.9719 121.322 35.9719 121.321C35.9719 121.32 35.9719 121.319 35.9719 121.318C35.9719 121.316 35.9719 121.315 35.9719 121.314C35.9719 121.313 35.9719 121.312 35.9719 121.31C35.9719 121.309 35.9719 121.308 35.9719 121.307C35.9719 121.306 35.9719 121.305 35.9719 121.303C35.9719 121.302 35.9719 121.301 35.9719 121.3C35.9719 121.299 35.9719 121.297 35.9719 121.296C35.9719 121.295 35.9719 121.294 35.9719 121.293C35.9719 121.291 35.9719 121.29 35.9719 121.289C35.9719 121.288 35.9719 121.287 35.9719 121.286C35.9719 121.284 35.9719 121.283 35.9719 121.282C35.9719 121.281 35.9719 121.28 35.9719 121.278C35.9719 121.277 35.9719 121.276 35.9719 121.275C35.9719 121.274 35.9719 121.273 35.9719 121.271C35.9719 121.27 35.9719 121.269 35.9719 121.268C35.9719 121.267 35.9719 121.265 35.9719 121.264C35.9719 121.263 35.9719 121.262 35.9719 121.261C35.9719 121.259 35.9719 121.258 35.9719 121.257C35.9719 121.256 35.9719 121.255 35.9719 121.254C35.9719 121.252 35.9719 121.251 35.9719 121.25C35.9719 121.249 35.9719 121.248 35.9719 121.246C35.9719 121.245 35.9719 121.244 35.9719 121.243C35.9719 121.242 35.9719 121.241 35.9719 121.239C35.9719 121.238 35.9719 121.237 35.9719 121.236C35.9719 121.235 35.9719 121.234 35.9719 121.232C35.9719 121.231 35.9719 121.23 35.9719 121.229C35.9719 121.228 35.9719 121.226 35.9719 121.225C35.9719 121.224 35.9719 121.223 35.9719 121.222C35.9719 121.221 35.9719 121.219 35.9719 121.218C35.9719 121.217 35.9719 121.216 35.9719 121.215C35.9719 121.213 35.9719 121.212 35.9719 121.211C35.9719 121.21 35.9719 121.209 35.9719 121.208C35.9719 121.206 35.9719 121.205 35.9719 121.204C35.9719 121.203 35.9719 121.202 35.9719 121.2C35.9719 121.199 35.9719 121.198 35.9719 121.197C35.9719 121.196 35.9719 121.195 35.9719 121.193C35.9719 121.192 35.9719 121.191 35.9719 121.19C35.9719 121.189 35.9719 121.188 35.9719 121.186C35.9719 121.185 35.9719 121.184 35.9719 121.183C35.9719 121.182 35.9719 121.181 35.9719 121.179C35.9719 121.178 35.9719 121.177 35.9719 121.176C35.9719 121.175 35.9719 121.173 35.9719 121.172C35.9719 121.171 35.9719 121.17 35.9719 121.169C35.9719 121.168 35.9719 121.166 35.9719 121.165C35.9719 121.164 35.9719 121.163 35.9719 121.162C35.9719 121.161 35.9719 121.159 35.9719 121.158C35.9719 121.157 35.9719 121.156 35.9719 121.155C35.9719 121.154 35.9719 121.152 35.9719 121.151C35.9719 121.15 35.9719 121.149 35.9719 121.148C35.9719 121.146 35.9719 121.145 35.9719 121.144C35.9719 121.143 35.9719 121.142 35.9719 121.141C35.9719 121.139 35.9719 121.138 35.9719 121.137C35.9719 121.136 35.9719 121.135 35.9719 121.134C35.9719 121.132 35.9719 121.131 35.9719 121.13C35.9719 121.129 35.9719 121.128 35.9719 121.127C35.9719 121.125 35.9719 121.124 35.9719 121.123C35.9719 121.122 35.9719 121.121 35.9719 121.12C35.9719 121.118 35.9719 121.117 35.9719 121.116C35.9719 121.115 35.9719 121.114 35.9719 121.113C35.9719 121.111 35.9719 121.11 35.9719 121.109C35.9719 121.108 35.9719 121.107 35.9719 121.106C35.9719 121.104 35.9719 121.103 35.9719 121.102C35.9719 121.101 35.9719 121.1 35.9719 121.099C35.9719 121.097 35.9719 121.096 35.9719 121.095C35.9719 121.094 35.9719 121.093 35.9719 121.092C35.9719 121.09 35.9719 121.089 35.9719 121.088H31.9719ZM31.9719 123.008C31.9719 123.607 31.9344 124.207 31.8593 124.808L35.8284 125.304C35.924 124.54 35.9719 123.774 35.9719 123.008H31.9719ZM31.8827 124.664C31.9035 124.56 31.9286 124.518 31.9128 124.551C31.8993 124.579 31.865 124.643 31.7958 124.747C31.6552 124.958 31.4248 125.252 31.0773 125.638L34.0505 128.314C34.4709 127.847 34.8379 127.394 35.124 126.965C35.3881 126.569 35.686 126.044 35.805 125.448L31.8827 124.664ZM31.0691 125.647C30.4913 126.297 29.8404 126.876 29.113 127.386L31.4068 130.662C32.386 129.977 33.2711 129.191 34.0587 128.305L31.0691 125.647ZM28.9311 127.529C28.6205 127.805 28.3989 127.955 28.2627 128.027C28.1189 128.104 28.1594 128.048 28.3399 128.048V132.048C29.6419 132.048 30.7687 131.248 31.5886 130.519L28.9311 127.529ZM38.4519 96.336C41.4502 96.336 44.6506 96.1156 48.0502 95.6798L47.5415 91.7122C44.2852 92.1297 41.2562 92.336 38.4519 92.336V96.336ZM48.0502 95.6798C51.4217 95.2475 54.5866 94.7276 57.5432 94.1189L56.7366 90.2011C53.8905 90.787 50.826 91.2912 47.5415 91.7122L48.0502 95.6798ZM57.5478 94.118C59.6707 93.6757 61.9949 93.0608 64.5167 92.2781L63.3311 88.4579C60.9036 89.2112 58.705 89.791 56.732 90.202L57.5478 94.118ZM64.4986 92.2837C67.1945 91.4749 69.7596 90.3952 72.1912 89.0443L70.2486 85.5477C68.0721 86.7568 65.7733 87.7251 63.3492 88.4523L64.4986 92.2837ZM72.1643 89.059C74.7667 87.6648 76.9166 85.9128 78.5624 83.7829L75.3973 81.3371C74.1418 82.9618 72.4517 84.3672 70.2754 85.533L72.1643 89.059ZM78.5278 83.8265C80.3833 81.5587 81.2839 78.8383 81.2839 75.776H77.2839C77.2839 78.0044 76.6485 79.8067 75.432 81.2935L78.5278 83.8265ZM81.2839 75.776C81.2839 72.0515 80.0441 68.7002 77.6203 65.7916L74.5474 68.3524C76.3903 70.5638 77.2839 73.0151 77.2839 75.776H81.2839ZM77.6203 65.7916C75.3029 63.0107 72.363 60.68 68.8401 58.7831L66.9437 62.3049C70.0767 63.992 72.5982 66.0133 74.5474 68.3524L77.6203 65.7916ZM68.8939 58.8131C65.5165 56.8578 61.9984 55.3428 58.3417 54.2725L57.2181 58.1115C60.5587 59.0892 63.7819 60.4756 66.8898 62.2749L68.8939 58.8131ZM58.3844 54.2855C54.7864 53.1447 51.4839 52.4245 48.4889 52.1522L48.1268 56.1358C50.7638 56.3755 53.776 57.0206 57.1754 58.0985L58.3844 54.2855ZM46.3772 53.6219L40.8732 73.9739L44.7345 75.0181L50.2385 54.6661L46.3772 53.6219ZM40.8524 74.0579C39.9147 78.2349 39.0199 82.1552 38.1679 85.819L42.0639 86.725C42.9185 83.0501 43.8157 79.1197 44.7553 74.9341L40.8524 74.0579ZM38.1603 85.8529C37.3916 89.4402 36.833 92.1464 36.4872 93.9618L40.4166 94.7102C40.7534 92.9416 41.3042 90.2718 42.0715 86.6911L38.1603 85.8529ZM105.282 121.472L103.886 122.904L103.895 122.913L105.282 121.472ZM101.922 78.848L103.744 79.6727L103.747 79.6656L101.922 78.848ZM113.634 64.64L114.733 66.3106L114.741 66.3057L114.748 66.3009L113.634 64.64ZM144.354 61.952L143.574 63.7935L143.585 63.7982L144.354 61.952ZM153.954 68.672L155.581 69.8345L156.509 68.536L155.449 67.3433L153.954 68.672ZM151.554 72.032L150.093 73.3978L151.761 75.1826L153.181 73.1945L151.554 72.032ZM142.53 65.6L141.724 67.4306L141.746 67.4403L141.768 67.4494L142.53 65.6ZM115.746 68L116.866 69.6566L116.875 69.651L116.883 69.6453L115.746 68ZM108.354 118.784L106.962 120.22L106.967 120.225L106.973 120.231L108.354 118.784ZM136.002 124.064L136.376 126.029L136.399 126.024L136.421 126.02L136.002 124.064ZM143.586 121.952L144.249 123.839L145.37 123.445L145.56 122.272L143.586 121.952ZM147.522 97.664L149.496 97.9839L149.872 95.664H147.522V97.664ZM128.898 97.664L126.921 97.3599L126.567 99.664H128.898V97.664ZM129.474 93.92V91.92H127.758L127.497 93.6159L129.474 93.92ZM151.938 93.92L153.913 94.2319L154.278 91.92H151.938V93.92ZM147.042 124.928L147.854 126.756L148.848 126.314L149.017 125.24L147.042 124.928ZM138.018 127.616L138.423 129.575L138.423 129.575L138.018 127.616ZM126.786 126.768C117.851 126.768 111.244 124.433 106.668 120.031L103.895 122.913C109.432 128.239 117.161 130.768 126.786 130.768V126.768ZM106.678 120.04C102.187 115.664 99.7939 109.182 99.7939 100.256H95.7939C95.7939 109.89 98.3925 117.552 103.886 122.904L106.678 120.04ZM99.7939 100.256C99.7939 92.2853 101.133 85.4416 103.744 79.6727L100.1 78.0233C97.207 84.4144 95.7939 91.8427 95.7939 100.256H99.7939ZM103.747 79.6656C106.361 73.8289 110.031 69.4061 114.733 66.3106L112.534 62.9694C107.125 66.5299 102.986 71.5791 100.097 78.0304L103.747 79.6656ZM114.748 66.3009C119.434 63.1569 124.987 61.552 131.49 61.552V57.552C124.296 57.552 117.945 59.3391 112.52 62.9791L114.748 66.3009ZM131.49 61.552C136.067 61.552 140.083 62.3144 143.574 63.7935L145.134 60.1105C141.073 58.3896 136.513 57.552 131.49 57.552V61.552ZM143.585 63.7982C147.169 65.2918 150.115 67.3631 152.459 70.0007L155.449 67.3433C152.673 64.2209 149.218 61.8122 145.123 60.1058L143.585 63.7982ZM152.326 67.5095L149.926 70.8695L153.181 73.1945L155.581 69.8345L152.326 67.5095ZM153.015 70.6662C150.095 67.5424 146.856 65.2183 143.291 63.7506L141.768 67.4494C144.732 68.6697 147.509 70.6336 150.093 73.3978L153.015 70.6662ZM143.335 63.7694C139.827 62.2259 135.765 61.488 131.202 61.488V65.488C135.342 65.488 138.832 66.1581 141.724 67.4306L143.335 63.7694ZM131.202 61.488C124.896 61.488 119.336 63.0874 114.609 66.3547L116.883 69.6453C120.86 66.8966 125.603 65.488 131.202 65.488V61.488ZM114.625 66.3434C109.914 69.5306 106.326 74.0769 103.829 79.8816L107.503 81.4624C109.742 76.2591 112.874 72.3574 116.866 69.6566L114.625 66.3434ZM103.829 79.8816C101.329 85.6912 100.114 92.5005 100.114 100.256H104.114C104.114 92.9075 105.267 86.6608 107.503 81.4624L103.829 79.8816ZM100.114 100.256C100.114 108.879 102.27 115.673 106.962 120.22L109.746 117.348C106.118 113.831 104.114 108.273 104.114 100.256H100.114ZM106.973 120.231C111.697 124.74 118.48 126.832 126.978 126.832V122.832C119.092 122.832 113.459 120.892 109.735 117.337L106.973 120.231ZM126.978 126.832C130.406 126.832 133.542 126.569 136.376 126.029L135.628 122.099C133.086 122.583 130.206 122.832 126.978 122.832V126.832ZM136.421 126.02C139.184 125.428 141.794 124.701 144.249 123.839L142.923 120.065C140.642 120.867 138.196 121.548 135.583 122.108L136.421 126.02ZM145.56 122.272L149.496 97.9839L145.548 97.3441L141.612 121.632L145.56 122.272ZM147.522 95.664H128.898V99.664H147.522V95.664ZM130.875 97.9681L131.451 94.2241L127.497 93.6159L126.921 97.3599L130.875 97.9681ZM129.474 95.92H151.938V91.92H129.474V95.92ZM149.962 93.6081L145.066 124.616L149.017 125.24L153.913 94.2319L149.962 93.6081ZM146.23 123.1C144.104 124.045 141.247 124.906 137.613 125.657L138.423 129.575C142.213 128.79 145.372 127.859 147.854 126.756L146.23 123.1ZM137.613 125.657C134.033 126.398 130.425 126.768 126.786 126.768V130.768C130.699 130.768 134.578 130.37 138.423 129.575L137.613 125.657Z" fill="white"/>
</g>
<defs>
<filter id="filter0_d_1_4" x="23.5719" y="48.384" width="134.382" height="92.48" filterUnits="userSpaceOnUse" color-interpolation-filters="sRGB">
<feFlood flood-opacity="0" result="BackgroundImageFix"/>
<feColorMatrix in="SourceAlpha" type="matrix" values="0 0 0 0 0 0 0 0 0 0 0 0 0 0 0 0 0 0 127 0" result="hardAlpha"/>
<feOffset dy="4"/>
<feGaussianBlur stdDeviation="2"/>
<feComposite in2="hardAlpha" operator="out"/>
<feColorMatrix type="matrix" values="0 0 0 0 0 0 0 0 0 0 0 0 0 0 0 0 0 0 0.25 0"/>
<feBlend mode="normal" in2="BackgroundImageFix" result="effect1_dropShadow_1_4"/>
<feBlend mode="normal" in="SourceGraphic" in2="effect1_dropShadow_1_4" result="shape"/>
</filter>
<linearGradient id="paint0_linear_1_4" x1="90" y1="0" x2="90" y2="180" gradientUnits="userSpaceOnUse">
<stop stop-color="#8F5454"/>
<stop offset="1" stop-color="#946161"/>
</linearGradient>
<radialGradient id="paint1_radial_1_4" cx="0" cy="0" r="1" gradientUnits="userSpaceOnUse" gradientTransform="translate(90 90) rotate(90) scale(90)">
<stop stop-color="#FD0000"/>
<stop offset="1" stop-color="white"/>
</radialGradient>
<linearGradient id="paint2_linear_1_4" x1="90" y1="0" x2="90" y2="180" gradientUnits="userSpaceOnUse">
<stop stop-color="white"/>
<stop offset="1" stop-color="#797979" stop-opacity="0.62"/>
</linearGradient>
</defs>
</svg>
